<?xml version="1.0" encoding="utf-8"?>
<!-- Generator: Adobe Illustrator 19.1.0, SVG Export Plug-In . SVG Version: 6.00 Build 0)  -->
<!DOCTYPE svg PUBLIC "-//W3C//DTD SVG 1.1//EN" "http://www.w3.org/Graphics/SVG/1.1/DTD/svg11.dtd">
<svg version="1.1" id="Ebene_1" xmlns="http://www.w3.org/2000/svg" xmlns:xlink="http://www.w3.org/1999/xlink" x="0px" y="0px"
	 viewBox="0 0 306.7 91.5" style="enable-background:new 0 0 306.7 91.5;" xml:space="preserve">
<style type="text/css">
	.st0{clip-path:url(#SVGID_2_);fill:#FFFFFF;}
	.st1{clip-path:url(#SVGID_2_);fill:#FEFEFE;}
	.st2{clip-path:url(#SVGID_2_);fill:#FDFDFD;}
	.st3{clip-path:url(#SVGID_2_);fill:#FCFCFC;}
	.st4{clip-path:url(#SVGID_2_);fill:#FBFBFB;}
	.st5{clip-path:url(#SVGID_2_);fill:#FAFAFA;}
	.st6{clip-path:url(#SVGID_2_);fill:#F9F9F9;}
	.st7{clip-path:url(#SVGID_2_);fill:#F8F8F8;}
	.st8{clip-path:url(#SVGID_2_);fill:#F7F7F7;}
	.st9{clip-path:url(#SVGID_2_);fill:#F6F6F6;}
	.st10{clip-path:url(#SVGID_2_);fill:#F5F5F5;}
	.st11{clip-path:url(#SVGID_2_);fill:#F4F4F4;}
	.st12{clip-path:url(#SVGID_2_);fill:#F3F3F3;}
	.st13{clip-path:url(#SVGID_2_);fill:#F2F2F2;}
	.st14{clip-path:url(#SVGID_2_);fill:#F1F1F1;}
	.st15{clip-path:url(#SVGID_2_);fill:#F0F0F0;}
	.st16{clip-path:url(#SVGID_2_);fill:#EFEFEF;}
	.st17{clip-path:url(#SVGID_2_);fill:#EEEEEE;}
	.st18{clip-path:url(#SVGID_2_);fill:#EDEDED;}
	.st19{clip-path:url(#SVGID_2_);fill:#ECECEC;}
	.st20{clip-path:url(#SVGID_2_);fill:#EBEBEB;}
	.st21{clip-path:url(#SVGID_2_);fill:#EAEAEA;}
	.st22{clip-path:url(#SVGID_2_);fill:#E9E9E9;}
	.st23{clip-path:url(#SVGID_2_);fill:#E8E8E8;}
	.st24{clip-path:url(#SVGID_2_);fill:#E7E7E7;}
	.st25{clip-path:url(#SVGID_2_);fill:#E6E6E6;}
	.st26{clip-path:url(#SVGID_2_);fill:#E5E5E5;}
	.st27{clip-path:url(#SVGID_2_);fill:#E4E4E4;}
	.st28{clip-path:url(#SVGID_2_);fill:#E3E3E3;}
	.st29{clip-path:url(#SVGID_2_);fill:#E2E2E2;}
	.st30{clip-path:url(#SVGID_2_);fill:#E1E1E1;}
	.st31{clip-path:url(#SVGID_2_);fill:#E0E0E0;}
	.st32{clip-path:url(#SVGID_2_);fill:#DFDFDF;}
	.st33{clip-path:url(#SVGID_2_);fill:#DEDEDE;}
	.st34{clip-path:url(#SVGID_2_);fill:#DDDDDD;}
	.st35{clip-path:url(#SVGID_2_);fill:#DCDCDC;}
	.st36{clip-path:url(#SVGID_2_);fill:#DBDBDB;}
	.st37{clip-path:url(#SVGID_2_);fill:#DADADA;}
	.st38{clip-path:url(#SVGID_2_);fill:#D9D9D9;}
	.st39{clip-path:url(#SVGID_2_);fill:#D8D8D8;}
	.st40{clip-path:url(#SVGID_2_);fill:#D7D7D7;}
	.st41{clip-path:url(#SVGID_2_);fill:#D6D6D6;}
	.st42{clip-path:url(#SVGID_2_);fill:#D5D5D5;}
	.st43{clip-path:url(#SVGID_2_);fill:#D4D4D4;}
	.st44{clip-path:url(#SVGID_2_);fill:#D3D3D3;}
	.st45{clip-path:url(#SVGID_2_);fill:#D2D2D2;}
	.st46{clip-path:url(#SVGID_2_);fill:#D1D1D1;}
	.st47{clip-path:url(#SVGID_2_);fill:#D0D0D0;}
	.st48{clip-path:url(#SVGID_2_);fill:#CFCFCF;}
	.st49{clip-path:url(#SVGID_2_);fill:#CECECE;}
	.st50{clip-path:url(#SVGID_2_);fill:#CDCDCD;}
	.st51{clip-path:url(#SVGID_2_);fill:#CCCCCC;}
	.st52{clip-path:url(#SVGID_2_);fill:#CBCBCB;}
	.st53{clip-path:url(#SVGID_2_);fill:#CACACA;}
	.st54{clip-path:url(#SVGID_2_);fill:#C9C9C9;}
	.st55{clip-path:url(#SVGID_2_);fill:#C8C8C8;}
	.st56{clip-path:url(#SVGID_2_);fill:#C7C7C7;}
	.st57{clip-path:url(#SVGID_2_);fill:#C6C6C6;}
	.st58{clip-path:url(#SVGID_2_);fill:#C5C5C5;}
	.st59{clip-path:url(#SVGID_2_);fill:#C4C4C4;}
	.st60{clip-path:url(#SVGID_2_);fill:#C3C3C3;}
	.st61{clip-path:url(#SVGID_2_);fill:#C2C2C2;}
	.st62{clip-path:url(#SVGID_2_);fill:#C1C1C1;}
	.st63{clip-path:url(#SVGID_2_);fill:#C0C0C0;}
	.st64{clip-path:url(#SVGID_2_);fill:#BFBFBF;}
	.st65{clip-path:url(#SVGID_2_);fill:#BEBEBE;}
	.st66{clip-path:url(#SVGID_2_);fill:#BDBDBD;}
	.st67{clip-path:url(#SVGID_2_);fill:#BCBCBC;}
	.st68{clip-path:url(#SVGID_2_);fill:#BBBBBB;}
	.st69{clip-path:url(#SVGID_2_);fill:#BABABA;}
	.st70{clip-path:url(#SVGID_2_);fill:#B9B9B9;}
	.st71{clip-path:url(#SVGID_2_);fill:#B8B8B8;}
	.st72{clip-path:url(#SVGID_2_);fill:#B7B7B7;}
	.st73{clip-path:url(#SVGID_2_);fill:#B6B6B6;}
	.st74{clip-path:url(#SVGID_2_);fill:#B5B5B5;}
	.st75{clip-path:url(#SVGID_2_);fill:#B4B4B4;}
	.st76{clip-path:url(#SVGID_2_);fill:#B3B3B3;}
	.st77{clip-path:url(#SVGID_2_);fill:#B2B2B2;}
	.st78{clip-path:url(#SVGID_2_);fill:#B1B1B1;}
	.st79{clip-path:url(#SVGID_2_);fill:#B0B0B0;}
	.st80{clip-path:url(#SVGID_2_);fill:#AFAFAF;}
	.st81{clip-path:url(#SVGID_2_);fill:#AEAEAE;}
	.st82{clip-path:url(#SVGID_2_);fill:#ADADAD;}
	.st83{clip-path:url(#SVGID_2_);fill:#ACACAC;}
	.st84{clip-path:url(#SVGID_2_);fill:#ABABAB;}
	.st85{clip-path:url(#SVGID_2_);fill:#AAAAAA;}
	.st86{clip-path:url(#SVGID_2_);fill:#A9A9A9;}
	.st87{clip-path:url(#SVGID_2_);fill:#A8A8A8;}
	.st88{clip-path:url(#SVGID_2_);fill:#A7A7A7;}
	.st89{clip-path:url(#SVGID_2_);fill:#A6A6A6;}
	.st90{clip-path:url(#SVGID_2_);fill:#A5A5A5;}
	.st91{clip-path:url(#SVGID_2_);fill:#A4A4A4;}
	.st92{clip-path:url(#SVGID_2_);fill:#A3A3A3;}
	.st93{clip-path:url(#SVGID_2_);fill:#A2A2A2;}
	.st94{clip-path:url(#SVGID_2_);fill:#A1A1A1;}
	.st95{clip-path:url(#SVGID_2_);fill:#A0A0A0;}
	.st96{clip-path:url(#SVGID_2_);fill:#9F9F9F;}
	.st97{clip-path:url(#SVGID_2_);fill:#9E9E9E;}
	.st98{clip-path:url(#SVGID_2_);fill:#9D9D9D;}
	.st99{clip-path:url(#SVGID_2_);fill:#9C9C9C;}
	.st100{clip-path:url(#SVGID_2_);fill:#9B9B9B;}
	.st101{clip-path:url(#SVGID_2_);fill:#F5A500;}
	.st102{clip-path:url(#SVGID_2_);fill:#F5A600;}
	.st103{clip-path:url(#SVGID_2_);fill:#F5A700;}
	.st104{clip-path:url(#SVGID_2_);fill:#F6A800;}
	.st105{clip-path:url(#SVGID_2_);fill:#F6A900;}
	.st106{clip-path:url(#SVGID_2_);fill:#F6AA00;}
	.st107{clip-path:url(#SVGID_2_);fill:#F6AB00;}
	.st108{clip-path:url(#SVGID_2_);fill:#F7AC00;}
	.st109{clip-path:url(#SVGID_2_);fill:#F7AD00;}
	.st110{clip-path:url(#SVGID_2_);fill:#F7AE00;}
	.st111{clip-path:url(#SVGID_2_);fill:#F7AF00;}
	.st112{clip-path:url(#SVGID_2_);fill:#F8B000;}
	.st113{clip-path:url(#SVGID_2_);fill:#F8B100;}
	.st114{clip-path:url(#SVGID_2_);fill:#F8B200;}
	.st115{clip-path:url(#SVGID_2_);fill:#F8B300;}
	.st116{clip-path:url(#SVGID_2_);fill:#F9B400;}
	.st117{clip-path:url(#SVGID_2_);fill:#F9B500;}
	.st118{clip-path:url(#SVGID_2_);fill:#F9B600;}
	.st119{clip-path:url(#SVGID_2_);fill:#F9B700;}
	.st120{clip-path:url(#SVGID_2_);fill:#FAB800;}
	.st121{clip-path:url(#SVGID_2_);fill:#FAB900;}
	.st122{clip-path:url(#SVGID_2_);fill:#FABA00;}
	.st123{clip-path:url(#SVGID_2_);fill:#FBBB00;}
	.st124{clip-path:url(#SVGID_2_);fill:#FBBC00;}
	.st125{clip-path:url(#SVGID_2_);fill:#FBBD00;}
	.st126{clip-path:url(#SVGID_2_);fill:#FBBE00;}
	.st127{clip-path:url(#SVGID_2_);fill:#FCBF00;}
	.st128{clip-path:url(#SVGID_2_);fill:#FCC000;}
	.st129{clip-path:url(#SVGID_2_);fill:#FCC100;}
	.st130{clip-path:url(#SVGID_2_);fill:#FCC200;}
	.st131{clip-path:url(#SVGID_2_);fill:#FDC300;}
	.st132{clip-path:url(#SVGID_2_);fill:#FDC400;}
	.st133{clip-path:url(#SVGID_2_);fill:#FDC500;}
	.st134{clip-path:url(#SVGID_2_);fill:#FDC600;}
	.st135{clip-path:url(#SVGID_2_);fill:#FEC700;}
	.st136{clip-path:url(#SVGID_2_);fill:#FEC800;}
	.st137{clip-path:url(#SVGID_2_);fill:#FEC900;}
	.st138{clip-path:url(#SVGID_2_);fill:#FECA00;}
	.st139{clip-path:url(#SVGID_2_);fill:#FFCB00;}
	.st140{clip-path:url(#SVGID_2_);fill:#FFCC00;}
	.st141{clip-path:url(#SVGID_2_);fill:#FFCD00;}
	.st142{clip-path:url(#SVGID_2_);fill:#FFCD01;}
	.st143{clip-path:url(#SVGID_2_);fill:#FFCD02;}
	.st144{clip-path:url(#SVGID_2_);fill:#FFCE03;}
	.st145{clip-path:url(#SVGID_2_);fill:#FFCE04;}
	.st146{clip-path:url(#SVGID_2_);fill:#FFCE05;}
	.st147{clip-path:url(#SVGID_2_);fill:#FFCE06;}
	.st148{clip-path:url(#SVGID_2_);fill:#FFCE07;}
	.st149{clip-path:url(#SVGID_2_);fill:#FFCF08;}
	.st150{clip-path:url(#SVGID_2_);fill:#FFCF09;}
	.st151{clip-path:url(#SVGID_2_);fill:#FFCF0A;}
	.st152{clip-path:url(#SVGID_2_);fill:#FFCF0B;}
	.st153{clip-path:url(#SVGID_2_);fill:#FFCF0C;}
	.st154{clip-path:url(#SVGID_2_);fill:#FFD00D;}
	.st155{clip-path:url(#SVGID_2_);fill:#FFD00E;}
	.st156{clip-path:url(#SVGID_2_);fill:#FFD00F;}
	.st157{clip-path:url(#SVGID_2_);fill:#FFD010;}
	.st158{clip-path:url(#SVGID_2_);fill:#FFD011;}
	.st159{clip-path:url(#SVGID_2_);fill:#FFD112;}
	.st160{clip-path:url(#SVGID_2_);fill:#FFD113;}
	.st161{clip-path:url(#SVGID_2_);fill:#FFD114;}
	.st162{clip-path:url(#SVGID_2_);fill:#FFD115;}
	.st163{clip-path:url(#SVGID_2_);fill:#FFD116;}
	.st164{clip-path:url(#SVGID_2_);fill:#FFD217;}
	.st165{clip-path:url(#SVGID_2_);fill:#FFD218;}
	.st166{clip-path:url(#SVGID_2_);fill:#FFD219;}
	.st167{clip-path:url(#SVGID_2_);fill:#FFD21A;}
	.st168{clip-path:url(#SVGID_2_);fill:#FFD21B;}
	.st169{clip-path:url(#SVGID_2_);fill:#FFD21C;}
	.st170{clip-path:url(#SVGID_2_);fill:#FFD31D;}
	.st171{clip-path:url(#SVGID_2_);fill:#FFD31E;}
	.st172{clip-path:url(#SVGID_2_);fill:#FFD31F;}
	.st173{clip-path:url(#SVGID_2_);fill:#FFD320;}
	.st174{clip-path:url(#SVGID_2_);fill:#FFD321;}
	.st175{clip-path:url(#SVGID_2_);fill:#FFD422;}
	.st176{clip-path:url(#SVGID_2_);fill:#FFD423;}
	.st177{clip-path:url(#SVGID_2_);fill:#FFD424;}
	.st178{clip-path:url(#SVGID_2_);fill:#FFD425;}
	.st179{clip-path:url(#SVGID_2_);fill:#FFD426;}
	.st180{clip-path:url(#SVGID_2_);fill:#FFD527;}
	.st181{clip-path:url(#SVGID_2_);fill:#FFD528;}
	.st182{clip-path:url(#SVGID_2_);fill:#FFD529;}
	.st183{clip-path:url(#SVGID_2_);fill:#FFD52A;}
	.st184{clip-path:url(#SVGID_2_);fill:#FFD52B;}
	.st185{clip-path:url(#SVGID_2_);fill:#FFD62C;}
	.st186{clip-path:url(#SVGID_2_);fill:#FFD62D;}
	.st187{clip-path:url(#SVGID_2_);fill:#FFD62E;}
	.st188{clip-path:url(#SVGID_2_);fill:#FFD62F;}
	.st189{clip-path:url(#SVGID_2_);fill:#FFD630;}
	.st190{clip-path:url(#SVGID_2_);fill:#FFD731;}
	.st191{clip-path:url(#SVGID_2_);fill:#FFD732;}
	.st192{clip-path:url(#SVGID_2_);fill:#FFD733;}
	.st193{clip-path:url(#SVGID_2_);fill:#FFD734;}
	.st194{clip-path:url(#SVGID_2_);fill:#FFD735;}
	.st195{clip-path:url(#SVGID_2_);fill:#FFD836;}
	.st196{clip-path:url(#SVGID_2_);fill:#FFD837;}
	.st197{clip-path:url(#SVGID_2_);fill:#FFD838;}
	.st198{clip-path:url(#SVGID_2_);fill:#FFD839;}
	.st199{clip-path:url(#SVGID_2_);fill:#FFD83A;}
	.st200{clip-path:url(#SVGID_2_);fill:#FFD93B;}
	.st201{clip-path:url(#SVGID_2_);fill:#FFD93C;}
	.st202{clip-path:url(#SVGID_2_);fill:#FFD93D;}
	.st203{clip-path:url(#SVGID_2_);fill:#FFD93E;}
	.st204{clip-path:url(#SVGID_2_);fill:#FFD93F;}
	.st205{clip-path:url(#SVGID_2_);fill:#FFDA40;}
	.st206{clip-path:url(#SVGID_2_);fill:#FFDA41;}
	.st207{clip-path:url(#SVGID_2_);fill:#FFDA42;}
	.st208{clip-path:url(#SVGID_2_);fill:#FFDA43;}
	.st209{clip-path:url(#SVGID_2_);fill:#FFDA44;}
	.st210{clip-path:url(#SVGID_2_);fill:#FFDB45;}
	.st211{clip-path:url(#SVGID_2_);fill:#FFDB46;}
	.st212{clip-path:url(#SVGID_2_);fill:#FFDB47;}
	.st213{clip-path:url(#SVGID_2_);fill:#FFDB48;}
	.st214{clip-path:url(#SVGID_2_);fill:#FFDB49;}
	.st215{clip-path:url(#SVGID_2_);fill:#FFDC4A;}
	.st216{clip-path:url(#SVGID_2_);fill:#FFDC4B;}
	.st217{clip-path:url(#SVGID_2_);fill:#FFDC4C;}
	.st218{clip-path:url(#SVGID_2_);fill:#FFDC4D;}
	.st219{clip-path:url(#SVGID_2_);fill:#FFDC4E;}
	.st220{clip-path:url(#SVGID_2_);fill:#FFDC4F;}
	.st221{clip-path:url(#SVGID_2_);fill:#FFDD50;}
	.st222{clip-path:url(#SVGID_2_);fill:#FFDD51;}
	.st223{clip-path:url(#SVGID_2_);fill:#FFDD52;}
	.st224{clip-path:url(#SVGID_2_);fill:#FFDD53;}
	.st225{clip-path:url(#SVGID_2_);fill:#FFDD54;}
	.st226{clip-path:url(#SVGID_2_);fill:#FFDE55;}
	.st227{clip-path:url(#SVGID_2_);fill:#FFDE56;}
	.st228{clip-path:url(#SVGID_2_);fill:#FFDE57;}
	.st229{clip-path:url(#SVGID_2_);fill:#FFDE58;}
	.st230{clip-path:url(#SVGID_2_);fill:#FFDE59;}
	.st231{clip-path:url(#SVGID_2_);fill:#FFDF5A;}
	.st232{clip-path:url(#SVGID_2_);fill:#FFDF5B;}
	.st233{clip-path:url(#SVGID_2_);fill:#FFDF5C;}
	.st234{clip-path:url(#SVGID_2_);fill:#FFDF5D;}
	.st235{clip-path:url(#SVGID_2_);fill:#FFDF5E;}
	.st236{clip-path:url(#SVGID_2_);fill:#FFE05F;}
	.st237{clip-path:url(#SVGID_2_);fill:#FFE060;}
	.st238{clip-path:url(#SVGID_2_);fill:#FFE061;}
	.st239{clip-path:url(#SVGID_2_);fill:#FFE062;}
	.st240{clip-path:url(#SVGID_2_);fill:#FFE063;}
	.st241{clip-path:url(#SVGID_2_);fill:#FFE164;}
	.st242{clip-path:url(#SVGID_2_);fill:#FFE165;}
	.st243{clip-path:url(#SVGID_2_);fill:#FFE166;}
	.st244{clip-path:url(#SVGID_2_);fill:#FFE167;}
	.st245{clip-path:url(#SVGID_2_);fill:#FFE168;}
	.st246{clip-path:url(#SVGID_2_);fill:#FFE269;}
	.st247{clip-path:url(#SVGID_2_);fill:#FFE26A;}
	.st248{clip-path:url(#SVGID_2_);fill:#FFE26B;}
	.st249{clip-path:url(#SVGID_2_);fill:#FFE26C;}
	.st250{clip-path:url(#SVGID_2_);fill:#FFE26D;}
	.st251{clip-path:url(#SVGID_2_);fill:#FFE36E;}
	.st252{clip-path:url(#SVGID_2_);fill:#FFE36F;}
	.st253{clip-path:url(#SVGID_2_);fill:#FFE370;}
	.st254{clip-path:url(#SVGID_2_);fill:#FFE371;}
	.st255{clip-path:url(#SVGID_2_);fill:#FFE372;}
	.st256{clip-path:url(#SVGID_2_);fill:#FFE473;}
	.st257{clip-path:url(#SVGID_2_);fill:#FFE474;}
	.st258{clip-path:url(#SVGID_2_);fill:#FFE475;}
	.st259{clip-path:url(#SVGID_2_);fill:#FFE476;}
	.st260{clip-path:url(#SVGID_2_);fill:#FFE477;}
	.st261{clip-path:url(#SVGID_2_);fill:#FFE578;}
	.st262{clip-path:url(#SVGID_2_);fill:#FFE579;}
	.st263{clip-path:url(#SVGID_2_);fill:#FFE57A;}
	.st264{clip-path:url(#SVGID_2_);fill:#FFE57B;}
	.st265{clip-path:url(#SVGID_2_);fill:#FFE57C;}
	.st266{clip-path:url(#SVGID_2_);fill:#FFE67D;}
	.st267{clip-path:url(#SVGID_2_);fill:#FFE67E;}
	.st268{clip-path:url(#SVGID_2_);fill:#FFE67F;}
	.st269{clip-path:url(#SVGID_2_);fill:#FFE680;}
	.st270{clip-path:url(#SVGID_2_);fill:#FFE681;}
	.st271{clip-path:url(#SVGID_2_);fill:#FFE682;}
	.st272{clip-path:url(#SVGID_2_);fill:#FFE783;}
	.st273{clip-path:url(#SVGID_2_);fill:#FFE784;}
	.st274{clip-path:url(#SVGID_2_);fill:#FFE785;}
	.st275{clip-path:url(#SVGID_2_);fill:#FFE786;}
	.st276{clip-path:url(#SVGID_2_);fill:#FFE787;}
	.st277{clip-path:url(#SVGID_2_);fill:#FFE888;}
	.st278{clip-path:url(#SVGID_2_);fill:#FFE889;}
	.st279{clip-path:url(#SVGID_2_);fill:#FFE88A;}
	.st280{clip-path:url(#SVGID_2_);fill:#FFE88B;}
	.st281{clip-path:url(#SVGID_2_);fill:#FFE88C;}
	.st282{clip-path:url(#SVGID_2_);fill:#FFE98D;}
	.st283{clip-path:url(#SVGID_2_);fill:#FFE98E;}
	.st284{clip-path:url(#SVGID_2_);fill:#FFE98F;}
	.st285{clip-path:url(#SVGID_2_);fill:#FFE990;}
	.st286{clip-path:url(#SVGID_2_);fill:#FFE991;}
	.st287{clip-path:url(#SVGID_2_);fill:#FFEA92;}
	.st288{clip-path:url(#SVGID_2_);fill:#FFEA93;}
	.st289{clip-path:url(#SVGID_2_);fill:#FFEA94;}
	.st290{clip-path:url(#SVGID_2_);fill:#FFEA95;}
	.st291{clip-path:url(#SVGID_2_);fill:#FFEA96;}
	.st292{clip-path:url(#SVGID_2_);fill:#FFEB97;}
	.st293{clip-path:url(#SVGID_2_);fill:#FFEB98;}
	.st294{clip-path:url(#SVGID_2_);fill:#FFEB99;}
	.st295{clip-path:url(#SVGID_2_);fill:#FFEB9A;}
	.st296{clip-path:url(#SVGID_2_);fill:#FFEB9B;}
	.st297{clip-path:url(#SVGID_2_);fill:#FFEC9C;}
	.st298{clip-path:url(#SVGID_2_);fill:#FFEC9D;}
	.st299{clip-path:url(#SVGID_2_);fill:#FFEC9E;}
	.st300{clip-path:url(#SVGID_2_);fill:#FFEC9F;}
	.st301{clip-path:url(#SVGID_2_);fill:#FFECA0;}
	.st302{clip-path:url(#SVGID_2_);fill:#FFEDA1;}
	.st303{clip-path:url(#SVGID_2_);fill:#FFEDA2;}
	.st304{clip-path:url(#SVGID_2_);fill:#FFEDA3;}
	.st305{clip-path:url(#SVGID_2_);fill:#FFEDA4;}
	.st306{clip-path:url(#SVGID_2_);fill:#FFEDA5;}
	.st307{clip-path:url(#SVGID_2_);fill:#FFEEA6;}
	.st308{clip-path:url(#SVGID_2_);fill:#FFEEA7;}
	.st309{clip-path:url(#SVGID_2_);fill:#FFEEA8;}
	.st310{clip-path:url(#SVGID_2_);fill:#FFEEA9;}
	.st311{clip-path:url(#SVGID_2_);fill:#FFEEAA;}
	.st312{clip-path:url(#SVGID_2_);fill:#FFEFAB;}
	.st313{clip-path:url(#SVGID_2_);fill:#FFEFAC;}
	.st314{clip-path:url(#SVGID_2_);fill:#FFEFAD;}
	.st315{clip-path:url(#SVGID_2_);fill:#FFEFAE;}
	.st316{clip-path:url(#SVGID_2_);fill:#FFEFAF;}
	.st317{clip-path:url(#SVGID_2_);fill:#FFF0B0;}
	.st318{clip-path:url(#SVGID_2_);fill:#FFF0B1;}
	.st319{clip-path:url(#SVGID_2_);fill:#FFF0B2;}
	.st320{clip-path:url(#SVGID_2_);fill:#FFF0B3;}
	.st321{clip-path:url(#SVGID_2_);fill:#FFF0B4;}
	.st322{clip-path:url(#SVGID_2_);fill:#FFF0B5;}
	.st323{clip-path:url(#SVGID_2_);fill:#FFF1B6;}
	.st324{clip-path:url(#SVGID_2_);fill:#FFF1B7;}
	.st325{clip-path:url(#SVGID_2_);fill:#FFF1B8;}
	.st326{clip-path:url(#SVGID_2_);fill:#FFF1B9;}
	.st327{clip-path:url(#SVGID_2_);fill:#FFF1BA;}
	.st328{clip-path:url(#SVGID_2_);fill:#FFF2BB;}
	.st329{clip-path:url(#SVGID_2_);fill:#FFF2BC;}
	.st330{clip-path:url(#SVGID_2_);fill:#FFF2BD;}
	.st331{clip-path:url(#SVGID_2_);fill:#FFF2BE;}
	.st332{clip-path:url(#SVGID_2_);fill:#FFF2BF;}
	.st333{clip-path:url(#SVGID_2_);fill:#FFF3C0;}
	.st334{clip-path:url(#SVGID_2_);fill:#FFF3C1;}
	.st335{clip-path:url(#SVGID_2_);fill:#FFF3C2;}
	.st336{clip-path:url(#SVGID_2_);fill:#FFF3C3;}
	.st337{clip-path:url(#SVGID_2_);fill:#FFF3C4;}
	.st338{clip-path:url(#SVGID_2_);fill:#FFF4C5;}
	.st339{clip-path:url(#SVGID_2_);fill:#FFF4C6;}
	.st340{clip-path:url(#SVGID_2_);fill:#FFF4C7;}
	.st341{clip-path:url(#SVGID_2_);fill:#FFF4C8;}
	.st342{clip-path:url(#SVGID_2_);fill:#FFF4C9;}
	.st343{clip-path:url(#SVGID_2_);fill:#FFF5CA;}
	.st344{clip-path:url(#SVGID_2_);fill:#FFF5CB;}
	.st345{clip-path:url(#SVGID_2_);fill:#FFF5CC;}
	.st346{clip-path:url(#SVGID_2_);fill:#FFF5CD;}
	.st347{clip-path:url(#SVGID_2_);fill:#FFF5CE;}
	.st348{clip-path:url(#SVGID_2_);fill:#FFF6CF;}
	.st349{clip-path:url(#SVGID_2_);fill:#FFF6D0;}
	.st350{clip-path:url(#SVGID_2_);fill:#FFF6D1;}
	.st351{clip-path:url(#SVGID_2_);fill:#FFF6D2;}
	.st352{clip-path:url(#SVGID_2_);fill:#FFF6D3;}
	.st353{clip-path:url(#SVGID_2_);fill:#FFF7D4;}
	.st354{clip-path:url(#SVGID_2_);fill:#FFF7D5;}
	.st355{clip-path:url(#SVGID_2_);fill:#FFF7D6;}
	.st356{clip-path:url(#SVGID_2_);fill:#FFF7D7;}
	.st357{clip-path:url(#SVGID_2_);fill:#FFF7D8;}
	.st358{clip-path:url(#SVGID_2_);fill:#FFF8D9;}
	.st359{clip-path:url(#SVGID_2_);fill:#FFF8DA;}
	.st360{clip-path:url(#SVGID_2_);fill:#FFF8DB;}
	.st361{clip-path:url(#SVGID_2_);fill:#FFF8DC;}
	.st362{clip-path:url(#SVGID_2_);fill:#FFF8DD;}
	.st363{clip-path:url(#SVGID_2_);fill:#FFF9DE;}
	.st364{clip-path:url(#SVGID_2_);fill:#FFF9DF;}
	.st365{clip-path:url(#SVGID_2_);fill:#FFF9E0;}
	.st366{clip-path:url(#SVGID_2_);fill:#FFF9E1;}
	.st367{clip-path:url(#SVGID_2_);fill:#FFF9E2;}
	.st368{clip-path:url(#SVGID_2_);fill:#FFFAE3;}
	.st369{clip-path:url(#SVGID_2_);fill:#FFFAE4;}
	.st370{clip-path:url(#SVGID_2_);fill:#FFFAE5;}
	.st371{clip-path:url(#SVGID_2_);fill:#FFFAE6;}
	.st372{clip-path:url(#SVGID_2_);fill:#FFFAE7;}
	.st373{clip-path:url(#SVGID_2_);fill:#FFFAE8;}
	.st374{clip-path:url(#SVGID_2_);fill:#FFFBE9;}
	.st375{clip-path:url(#SVGID_2_);fill:#FFFBEA;}
	.st376{clip-path:url(#SVGID_2_);fill:#FFFBEB;}
	.st377{clip-path:url(#SVGID_2_);fill:#FFFBEC;}
	.st378{clip-path:url(#SVGID_2_);fill:#FFFBED;}
	.st379{clip-path:url(#SVGID_2_);fill:#FFFCEE;}
	.st380{clip-path:url(#SVGID_2_);fill:#FFFCEF;}
	.st381{clip-path:url(#SVGID_2_);fill:#FFFCF0;}
	.st382{clip-path:url(#SVGID_2_);fill:#FFFCF1;}
	.st383{clip-path:url(#SVGID_2_);fill:#FFFCF2;}
	.st384{clip-path:url(#SVGID_2_);fill:#FFFDF3;}
	.st385{clip-path:url(#SVGID_2_);fill:#FFFDF4;}
	.st386{clip-path:url(#SVGID_2_);fill:#FFFDF5;}
	.st387{clip-path:url(#SVGID_2_);fill:#FFFDF6;}
	.st388{clip-path:url(#SVGID_2_);fill:#FFFDF7;}
	.st389{clip-path:url(#SVGID_2_);fill:#FFFEF8;}
	.st390{clip-path:url(#SVGID_2_);fill:#FFFEF9;}
	.st391{clip-path:url(#SVGID_2_);fill:#FFFEFA;}
	.st392{clip-path:url(#SVGID_2_);fill:#FFFEFB;}
	.st393{clip-path:url(#SVGID_2_);fill:#FFFEFC;}
	.st394{clip-path:url(#SVGID_2_);fill:#FFFFFD;}
	.st395{clip-path:url(#SVGID_2_);fill:#FFFFFE;}
	.st396{clip-path:url(#SVGID_2_);fill:#5A5F5F;}
</style>
<g>
	<g>
		<defs>
			<rect id="SVGID_1_" y="0" width="306.7" height="91.5"/>
		</defs>
		<clipPath id="SVGID_2_">
			<use xlink:href="#SVGID_1_"  style="overflow:visible;"/>
		</clipPath>
		<path class="st0" d="M48.6,86.6c0,2.7-9.8,4.9-21.8,4.9c-12,0-21.8-2.2-21.8-4.9c0-2.7,9.8-5,21.8-5
			C38.8,81.6,48.6,83.9,48.6,86.6"/>
		<path class="st1" d="M48.4,86.6c0,2.7-9.7,4.9-21.7,4.9c-12,0-21.7-2.2-21.7-4.9c0-2.7,9.7-4.9,21.7-4.9
			C38.7,81.7,48.4,83.9,48.4,86.6"/>
		<path class="st2" d="M48.3,86.6c0,2.7-9.6,4.9-21.5,4.9c-11.9,0-21.5-2.2-21.5-4.9c0-2.7,9.6-4.9,21.5-4.9
			C38.7,81.7,48.3,83.9,48.3,86.6"/>
		<path class="st3" d="M48.2,86.6c0,2.7-9.6,4.8-21.4,4.8c-11.8,0-21.4-2.2-21.4-4.8c0-2.7,9.6-4.8,21.4-4.8
			C38.6,81.8,48.2,83.9,48.2,86.6"/>
		<path class="st4" d="M48,86.6c0,2.6-9.5,4.8-21.3,4.8c-11.7,0-21.3-2.1-21.3-4.8c0-2.7,9.5-4.8,21.3-4.8
			C38.5,81.8,48,83.9,48,86.6"/>
		<path class="st5" d="M47.9,86.6c0,2.6-9.5,4.8-21.1,4.8c-11.7,0-21.1-2.1-21.1-4.8c0-2.6,9.5-4.8,21.1-4.8
			C38.4,81.8,47.9,84,47.9,86.6"/>
		<path class="st6" d="M47.8,86.6c0,2.6-9.4,4.7-21,4.7c-11.6,0-21-2.1-21-4.7c0-2.6,9.4-4.7,21-4.7C38.4,81.9,47.8,84,47.8,86.6"/>
		<path class="st7" d="M47.6,86.6c0,2.6-9.3,4.7-20.9,4.7c-11.5,0-20.9-2.1-20.9-4.7c0-2.6,9.3-4.7,20.9-4.7
			C38.3,81.9,47.6,84,47.6,86.6"/>
		<path class="st8" d="M47.5,86.6c0,2.6-9.3,4.6-20.7,4.6C15.3,91.2,6,89.2,6,86.6c0-2.6,9.3-4.6,20.7-4.6
			C38.2,81.9,47.5,84,47.5,86.6"/>
		<path class="st9" d="M47.4,86.6c0,2.5-9.2,4.6-20.6,4.6c-11.4,0-20.6-2.1-20.6-4.6c0-2.5,9.2-4.6,20.6-4.6
			C38.2,82,47.4,84,47.4,86.6"/>
		<path class="st10" d="M47.2,86.6c0,2.5-9.2,4.6-20.5,4.6c-11.3,0-20.5-2-20.5-4.6c0-2.5,9.2-4.6,20.5-4.6
			C38.1,82,47.2,84.1,47.2,86.6"/>
		<path class="st11" d="M47.1,86.6c0,2.5-9.1,4.5-20.3,4.5c-11.2,0-20.3-2-20.3-4.5c0-2.5,9.1-4.5,20.3-4.5
			C38,82.1,47.1,84.1,47.1,86.6"/>
		<path class="st12" d="M47,86.6c0,2.5-9,4.5-20.2,4.5c-11.2,0-20.2-2-20.2-4.5c0-2.5,9.1-4.5,20.2-4.5C37.9,82.1,47,84.1,47,86.6"
			/>
		<path class="st13" d="M46.9,86.6c0,2.5-9,4.5-20.1,4.5c-11.1,0-20.1-2-20.1-4.5c0-2.5,9-4.5,20.1-4.5
			C37.9,82.1,46.9,84.1,46.9,86.6"/>
		<path class="st14" d="M46.7,86.6c0,2.4-8.9,4.4-19.9,4.4c-11,0-19.9-2-19.9-4.4c0-2.4,8.9-4.4,19.9-4.4
			C37.8,82.2,46.7,84.2,46.7,86.6"/>
		<path class="st15" d="M46.6,86.6c0,2.4-8.9,4.4-19.8,4.4C15.8,91,7,89,7,86.6c0-2.4,8.9-4.4,19.8-4.4
			C37.7,82.2,46.6,84.2,46.6,86.6"/>
		<path class="st16" d="M46.5,86.6c0,2.4-8.8,4.3-19.7,4.3c-10.9,0-19.7-1.9-19.7-4.3c0-2.4,8.8-4.3,19.7-4.3
			C37.6,82.3,46.5,84.2,46.5,86.6"/>
		<path class="st17" d="M46.3,86.6c0,2.4-8.8,4.3-19.5,4.3C16,90.9,7.2,89,7.2,86.6c0-2.4,8.8-4.3,19.6-4.3
			C37.6,82.3,46.3,84.2,46.3,86.6"/>
		<path class="st18" d="M46.2,86.6c0,2.4-8.7,4.3-19.4,4.3c-10.7,0-19.4-1.9-19.4-4.3c0-2.4,8.7-4.3,19.4-4.3
			C37.5,82.3,46.2,84.2,46.2,86.6"/>
		<path class="st19" d="M46.1,86.6c0,2.3-8.6,4.2-19.3,4.2c-10.7,0-19.3-1.9-19.3-4.2c0-2.3,8.6-4.2,19.3-4.2
			C37.4,82.4,46.1,84.3,46.1,86.6"/>
		<path class="st20" d="M45.9,86.6c0,2.3-8.6,4.2-19.2,4.2c-10.6,0-19.2-1.9-19.2-4.2c0-2.3,8.6-4.2,19.2-4.2
			C37.4,82.4,45.9,84.3,45.9,86.6"/>
		<path class="st21" d="M45.8,86.6c0,2.3-8.5,4.1-19,4.1c-10.5,0-19-1.9-19-4.1c0-2.3,8.5-4.1,19-4.1C37.3,82.4,45.8,84.3,45.8,86.6
			"/>
		<path class="st22" d="M45.7,86.6c0,2.3-8.5,4.1-18.9,4.1c-10.4,0-18.9-1.8-18.9-4.1c0-2.3,8.5-4.1,18.9-4.1
			C37.2,82.5,45.7,84.3,45.7,86.6"/>
		<path class="st23" d="M45.5,86.6c0,2.2-8.4,4.1-18.8,4.1C16.4,90.7,8,88.8,8,86.6c0-2.2,8.4-4.1,18.8-4.1
			C37.1,82.5,45.5,84.3,45.5,86.6"/>
		<path class="st24" d="M45.4,86.6c0,2.2-8.3,4-18.6,4c-10.3,0-18.6-1.8-18.6-4c0-2.2,8.3-4,18.6-4C37.1,82.6,45.4,84.4,45.4,86.6"
			/>
		<path class="st25" d="M45.3,86.6c0,2.2-8.3,4-18.5,4c-10.2,0-18.5-1.8-18.5-4c0-2.2,8.3-4,18.5-4C37,82.6,45.3,84.4,45.3,86.6"/>
		<path class="st26" d="M45.1,86.6c0,2.2-8.2,4-18.4,4c-10.1,0-18.4-1.8-18.4-4c0-2.2,8.2-4,18.4-4C36.9,82.6,45.1,84.4,45.1,86.6"
			/>
		<path class="st27" d="M45,86.6c0,2.2-8.2,3.9-18.2,3.9c-10.1,0-18.2-1.8-18.2-3.9c0-2.2,8.2-3.9,18.2-3.9
			C36.8,82.7,45,84.4,45,86.6"/>
		<path class="st28" d="M44.9,86.6c0,2.1-8.1,3.9-18.1,3.9c-10,0-18.1-1.7-18.1-3.9c0-2.1,8.1-3.9,18.1-3.9
			C36.8,82.7,44.9,84.4,44.9,86.6"/>
		<path class="st29" d="M44.7,86.6c0,2.1-8,3.8-18,3.8c-9.9,0-18-1.7-18-3.8c0-2.1,8-3.8,18-3.8C36.7,82.8,44.7,84.5,44.7,86.6"/>
		<path class="st30" d="M44.6,86.6c0,2.1-8,3.8-17.8,3.8c-9.9,0-17.8-1.7-17.8-3.8c0-2.1,8-3.8,17.8-3.8
			C36.6,82.8,44.6,84.5,44.6,86.6"/>
		<path class="st31" d="M44.5,86.6c0,2.1-7.9,3.8-17.7,3.8c-9.8,0-17.7-1.7-17.7-3.8c0-2.1,7.9-3.8,17.7-3.8
			C36.6,82.8,44.5,84.5,44.5,86.6"/>
		<path class="st32" d="M44.3,86.6c0,2.1-7.9,3.7-17.6,3.7c-9.7,0-17.6-1.7-17.6-3.7c0-2.1,7.9-3.7,17.6-3.7
			C36.5,82.9,44.3,84.5,44.3,86.6"/>
		<path class="st33" d="M44.2,86.6c0,2-7.8,3.7-17.4,3.7c-9.6,0-17.4-1.7-17.4-3.7s7.8-3.7,17.4-3.7C36.4,82.9,44.2,84.6,44.2,86.6"
			/>
		<path class="st34" d="M44.1,86.6c0,2-7.8,3.6-17.3,3.6c-9.6,0-17.3-1.6-17.3-3.6c0-2,7.8-3.6,17.3-3.6
			C36.3,82.9,44.1,84.6,44.1,86.6"/>
		<path class="st35" d="M44,86.6c0,2-7.7,3.6-17.2,3.6c-9.5,0-17.2-1.6-17.2-3.6c0-2,7.7-3.6,17.2-3.6C36.3,83,44,84.6,44,86.6"/>
		<path class="st36" d="M43.8,86.6c0,2-7.6,3.6-17,3.6c-9.4,0-17-1.6-17-3.6c0-2,7.6-3.6,17-3.6C36.2,83,43.8,84.6,43.8,86.6"/>
		<path class="st37" d="M43.7,86.6c0,2-7.6,3.5-16.9,3.5c-9.3,0-16.9-1.6-16.9-3.5s7.6-3.5,16.9-3.5C36.1,83.1,43.7,84.6,43.7,86.6"
			/>
		<path class="st38" d="M43.6,86.6c0,1.9-7.5,3.5-16.8,3.5c-9.3,0-16.8-1.6-16.8-3.5c0-1.9,7.5-3.5,16.8-3.5
			C36,83.1,43.6,84.7,43.6,86.6"/>
		<path class="st39" d="M43.4,86.6c0,1.9-7.5,3.5-16.7,3.5c-9.2,0-16.7-1.5-16.7-3.5s7.5-3.5,16.7-3.5C36,83.1,43.4,84.7,43.4,86.6"
			/>
		<path class="st40" d="M43.3,86.6c0,1.9-7.4,3.4-16.5,3.4c-9.1,0-16.5-1.5-16.5-3.4c0-1.9,7.4-3.4,16.5-3.4
			C35.9,83.2,43.3,84.7,43.3,86.6"/>
		<path class="st41" d="M43.2,86.6c0,1.9-7.3,3.4-16.4,3.4c-9.1,0-16.4-1.5-16.4-3.4s7.3-3.4,16.4-3.4
			C35.8,83.2,43.2,84.7,43.2,86.6"/>
		<path class="st42" d="M43,86.6c0,1.8-7.3,3.3-16.3,3.3c-9,0-16.3-1.5-16.3-3.3c0-1.8,7.3-3.3,16.3-3.3C35.8,83.2,43,84.7,43,86.6"
			/>
		<path class="st43" d="M42.9,86.6c0,1.8-7.2,3.3-16.1,3.3c-8.9,0-16.1-1.5-16.1-3.3c0-1.8,7.2-3.3,16.1-3.3
			C35.7,83.3,42.9,84.8,42.9,86.6"/>
		<path class="st44" d="M42.8,86.6c0,1.8-7.2,3.3-16,3.3c-8.8,0-16-1.5-16-3.3s7.2-3.3,16-3.3C35.6,83.3,42.8,84.8,42.8,86.6"/>
		<path class="st45" d="M42.6,86.6c0,1.8-7.1,3.2-15.9,3.2c-8.8,0-15.9-1.4-15.9-3.2c0-1.8,7.1-3.2,15.9-3.2
			C35.5,83.4,42.6,84.8,42.6,86.6"/>
		<path class="st46" d="M42.5,86.6c0,1.8-7,3.2-15.7,3.2c-8.7,0-15.7-1.4-15.7-3.2s7-3.2,15.7-3.2C35.5,83.4,42.5,84.8,42.5,86.6"/>
		<path class="st47" d="M42.4,86.6c0,1.7-7,3.2-15.6,3.2c-8.6,0-15.6-1.4-15.6-3.2c0-1.7,7-3.2,15.6-3.2
			C35.4,83.4,42.4,84.9,42.4,86.6"/>
		<path class="st48" d="M42.2,86.6c0,1.7-6.9,3.1-15.5,3.1c-8.5,0-15.5-1.4-15.5-3.1s6.9-3.1,15.5-3.1
			C35.3,83.5,42.2,84.9,42.2,86.6"/>
		<path class="st49" d="M42.1,86.6c0,1.7-6.9,3.1-15.3,3.1c-8.5,0-15.3-1.4-15.3-3.1c0-1.7,6.9-3.1,15.3-3.1
			C35.2,83.5,42.1,84.9,42.1,86.6"/>
		<path class="st50" d="M42,86.6c0,1.7-6.8,3-15.2,3c-8.4,0-15.2-1.4-15.2-3c0-1.7,6.8-3,15.2-3C35.2,83.6,42,84.9,42,86.6"/>
		<path class="st50" d="M41.8,86.6c0,1.7-6.7,3-15.1,3c-8.3,0-15.1-1.3-15.1-3c0-1.7,6.7-3,15.1-3C35.1,83.6,41.8,84.9,41.8,86.6"/>
		<path class="st51" d="M41.7,86.6c0,1.6-6.7,3-14.9,3c-8.3,0-14.9-1.3-14.9-3c0-1.6,6.7-3,14.9-3C35,83.6,41.7,85,41.7,86.6"/>
		<path class="st52" d="M41.6,86.6c0,1.6-6.6,2.9-14.8,2.9c-8.2,0-14.8-1.3-14.8-2.9c0-1.6,6.6-2.9,14.8-2.9
			C35,83.7,41.6,85,41.6,86.6"/>
		<path class="st53" d="M41.4,86.6c0,1.6-6.6,2.9-14.7,2.9c-8.1,0-14.7-1.3-14.7-2.9c0-1.6,6.6-2.9,14.7-2.9
			C34.9,83.7,41.4,85,41.4,86.6"/>
		<path class="st54" d="M41.3,86.6c0,1.6-6.5,2.8-14.5,2.8c-8,0-14.5-1.3-14.5-2.8c0-1.6,6.5-2.8,14.5-2.8
			C34.8,83.7,41.3,85,41.3,86.6"/>
		<path class="st55" d="M41.2,86.6c0,1.6-6.5,2.8-14.4,2.8c-8,0-14.4-1.3-14.4-2.8c0-1.5,6.5-2.8,14.4-2.8
			C34.7,83.8,41.2,85,41.2,86.6"/>
		<path class="st56" d="M41.1,86.6c0,1.5-6.4,2.8-14.3,2.8c-7.9,0-14.3-1.2-14.3-2.8c0-1.5,6.4-2.8,14.3-2.8
			C34.7,83.8,41.1,85.1,41.1,86.6"/>
		<path class="st57" d="M40.9,86.6c0,1.5-6.3,2.7-14.1,2.7c-7.8,0-14.2-1.2-14.2-2.7c0-1.5,6.3-2.7,14.2-2.7
			C34.6,83.9,40.9,85.1,40.9,86.6"/>
		<path class="st58" d="M40.8,86.6c0,1.5-6.3,2.7-14,2.7c-7.7,0-14-1.2-14-2.7c0-1.5,6.3-2.7,14-2.7C34.5,83.9,40.8,85.1,40.8,86.6"
			/>
		<path class="st59" d="M40.7,86.6c0,1.5-6.2,2.7-13.9,2.7c-7.7,0-13.9-1.2-13.9-2.7c0-1.5,6.2-2.7,13.9-2.7
			C34.4,83.9,40.7,85.1,40.7,86.6"/>
		<path class="st60" d="M40.5,86.6c0,1.4-6.2,2.6-13.8,2.6C19.2,89.2,13,88,13,86.6c0-1.4,6.2-2.6,13.8-2.6
			C34.4,84,40.5,85.1,40.5,86.6"/>
		<path class="st61" d="M40.4,86.6c0,1.4-6.1,2.6-13.6,2.6c-7.5,0-13.6-1.2-13.6-2.6c0-1.4,6.1-2.6,13.6-2.6
			C34.3,84,40.4,85.2,40.4,86.6"/>
		<path class="st62" d="M40.3,86.6c0,1.4-6,2.5-13.5,2.5c-7.5,0-13.5-1.1-13.5-2.5c0-1.4,6-2.5,13.5-2.5
			C34.2,84,40.3,85.2,40.3,86.6"/>
		<path class="st63" d="M40.1,86.6c0,1.4-6,2.5-13.4,2.5c-7.4,0-13.4-1.1-13.4-2.5c0-1.4,6-2.5,13.4-2.5
			C34.2,84.1,40.1,85.2,40.1,86.6"/>
		<path class="st64" d="M40,86.6c0,1.4-5.9,2.5-13.2,2.5c-7.3,0-13.2-1.1-13.2-2.5c0-1.4,5.9-2.5,13.2-2.5
			C34.1,84.1,40,85.2,40,86.6"/>
		<path class="st65" d="M39.9,86.6c0,1.3-5.9,2.4-13.1,2.4c-7.2,0-13.1-1.1-13.1-2.4c0-1.3,5.9-2.4,13.1-2.4
			C34,84.2,39.9,85.3,39.9,86.6"/>
		<path class="st66" d="M39.7,86.6c0,1.3-5.8,2.4-13,2.4c-7.2,0-13-1.1-13-2.4c0-1.3,5.8-2.4,13-2.4C33.9,84.2,39.7,85.3,39.7,86.6"
			/>
		<path class="st67" d="M39.6,86.6c0,1.3-5.7,2.4-12.8,2.4c-7.1,0-12.8-1.1-12.8-2.4c0-1.3,5.7-2.3,12.8-2.3
			C33.9,84.2,39.6,85.3,39.6,86.6"/>
		<path class="st68" d="M39.5,86.6c0,1.3-5.7,2.3-12.7,2.3c-7,0-12.7-1-12.7-2.3c0-1.3,5.7-2.3,12.7-2.3
			C33.8,84.3,39.5,85.3,39.5,86.6"/>
		<path class="st69" d="M39.3,86.6c0,1.3-5.6,2.3-12.6,2.3c-6.9,0-12.6-1-12.6-2.3c0-1.3,5.6-2.3,12.6-2.3
			C33.7,84.3,39.3,85.3,39.3,86.6"/>
		<path class="st70" d="M39.2,86.6c0,1.2-5.6,2.2-12.4,2.2c-6.9,0-12.4-1-12.4-2.2c0-1.2,5.6-2.2,12.4-2.2
			C33.6,84.4,39.2,85.4,39.2,86.6"/>
		<path class="st71" d="M39.1,86.6c0,1.2-5.5,2.2-12.3,2.2c-6.8,0-12.3-1-12.3-2.2c0-1.2,5.5-2.2,12.3-2.2
			C33.6,84.4,39.1,85.4,39.1,86.6"/>
		<path class="st72" d="M38.9,86.6c0,1.2-5.4,2.2-12.2,2.2c-6.7,0-12.2-1-12.2-2.2c0-1.2,5.4-2.2,12.2-2.2
			C33.5,84.4,38.9,85.4,38.9,86.6"/>
		<path class="st73" d="M38.8,86.6c0,1.2-5.4,2.1-12,2.1c-6.7,0-12-1-12-2.1c0-1.2,5.4-2.1,12-2.1C33.4,84.5,38.8,85.4,38.8,86.6"/>
		<path class="st74" d="M38.7,86.6c0,1.1-5.3,2.1-11.9,2.1c-6.6,0-11.9-0.9-11.9-2.1c0-1.1,5.3-2.1,11.9-2.1
			C33.3,84.5,38.7,85.4,38.7,86.6"/>
		<path class="st75" d="M38.5,86.6c0,1.1-5.3,2-11.8,2c-6.5,0-11.8-0.9-11.8-2c0-1.1,5.3-2,11.8-2C33.3,84.5,38.5,85.5,38.5,86.6"/>
		<path class="st76" d="M38.4,86.6c0,1.1-5.2,2-11.6,2c-6.4,0-11.6-0.9-11.6-2c0-1.1,5.2-2,11.6-2C33.2,84.6,38.4,85.5,38.4,86.6"/>
		<path class="st77" d="M38.3,86.6c0,1.1-5.2,2-11.5,2c-6.4,0-11.5-0.9-11.5-2c0-1.1,5.2-2,11.5-2C33.1,84.6,38.3,85.5,38.3,86.6"/>
		<path class="st78" d="M38.2,86.6c0,1.1-5.1,1.9-11.4,1.9c-6.3,0-11.4-0.9-11.4-1.9c0-1.1,5.1-1.9,11.4-1.9
			C33.1,84.7,38.2,85.5,38.2,86.6"/>
		<path class="st79" d="M38,86.6c0,1-5,1.9-11.2,1.9c-6.2,0-11.2-0.8-11.2-1.9c0-1,5-1.9,11.2-1.9C33,84.7,38,85.5,38,86.6"/>
		<path class="st80" d="M37.9,86.6c0,1-5,1.9-11.1,1.9c-6.1,0-11.1-0.8-11.1-1.9c0-1,5-1.9,11.1-1.9C32.9,84.7,37.9,85.6,37.9,86.6"
			/>
		<path class="st81" d="M37.8,86.6c0,1-4.9,1.8-11,1.8c-6.1,0-11-0.8-11-1.8c0-1,4.9-1.8,11-1.8C32.8,84.8,37.8,85.6,37.8,86.6"/>
		<path class="st82" d="M37.6,86.6c0,1-4.9,1.8-10.9,1.8c-6,0-10.9-0.8-10.9-1.8c0-1,4.9-1.8,10.9-1.8
			C32.8,84.8,37.6,85.6,37.6,86.6"/>
		<path class="st83" d="M37.5,86.6c0,1-4.8,1.7-10.7,1.7c-5.9,0-10.7-0.8-10.7-1.7c0-1,4.8-1.7,10.7-1.7
			C32.7,84.9,37.5,85.6,37.5,86.6"/>
		<path class="st84" d="M37.4,86.6c0,0.9-4.7,1.7-10.6,1.7c-5.9,0-10.6-0.8-10.6-1.7c0-0.9,4.7-1.7,10.6-1.7
			C32.6,84.9,37.4,85.7,37.4,86.6"/>
		<path class="st85" d="M37.2,86.6c0,0.9-4.7,1.7-10.5,1.7c-5.8,0-10.5-0.7-10.5-1.7c0-0.9,4.7-1.7,10.5-1.7
			C32.5,84.9,37.2,85.7,37.2,86.6"/>
		<path class="st86" d="M37.1,86.6c0,0.9-4.6,1.6-10.3,1.6c-5.7,0-10.3-0.7-10.3-1.6c0-0.9,4.6-1.6,10.3-1.6
			C32.5,85,37.1,85.7,37.1,86.6"/>
		<path class="st87" d="M37,86.6c0,0.9-4.6,1.6-10.2,1.6c-5.6,0-10.2-0.7-10.2-1.6c0-0.9,4.6-1.6,10.2-1.6C32.4,85,37,85.7,37,86.6"
			/>
		<path class="st88" d="M36.8,86.6c0,0.9-4.5,1.5-10.1,1.5c-5.6,0-10.1-0.7-10.1-1.5c0-0.8,4.5-1.5,10.1-1.5
			C32.3,85,36.8,85.7,36.8,86.6"/>
		<path class="st89" d="M36.7,86.6c0,0.8-4.4,1.5-9.9,1.5c-5.5,0-9.9-0.7-9.9-1.5c0-0.8,4.4-1.5,9.9-1.5
			C32.3,85.1,36.7,85.8,36.7,86.6"/>
		<path class="st90" d="M36.6,86.6c0,0.8-4.4,1.5-9.8,1.5c-5.4,0-9.8-0.7-9.8-1.5c0-0.8,4.4-1.5,9.8-1.5
			C32.2,85.1,36.6,85.8,36.6,86.6"/>
		<path class="st91" d="M36.4,86.6c0,0.8-4.3,1.4-9.7,1.4c-5.3,0-9.7-0.6-9.7-1.4c0-0.8,4.3-1.4,9.7-1.4
			C32.1,85.2,36.4,85.8,36.4,86.6"/>
		<path class="st92" d="M36.3,86.6c0,0.8-4.3,1.4-9.5,1.4c-5.3,0-9.5-0.6-9.5-1.4c0-0.8,4.3-1.4,9.5-1.4
			C32,85.2,36.3,85.8,36.3,86.6"/>
		<path class="st93" d="M36.2,86.6c0,0.7-4.2,1.4-9.4,1.4c-5.2,0-9.4-0.6-9.4-1.4c0-0.7,4.2-1.4,9.4-1.4
			C32,85.2,36.2,85.8,36.2,86.6"/>
		<path class="st94" d="M36,86.6c0,0.7-4.2,1.3-9.3,1.3c-5.1,0-9.3-0.6-9.3-1.3c0-0.7,4.2-1.3,9.3-1.3C31.9,85.3,36,85.9,36,86.6"/>
		<path class="st95" d="M35.9,86.6c0,0.7-4.1,1.3-9.1,1.3c-5,0-9.1-0.6-9.1-1.3c0-0.7,4.1-1.3,9.1-1.3
			C31.8,85.3,35.9,85.9,35.9,86.6"/>
		<path class="st96" d="M35.8,86.6c0,0.7-4,1.2-9,1.2c-5,0-9-0.6-9-1.2c0-0.7,4-1.2,9-1.2C31.7,85.4,35.8,85.9,35.8,86.6"/>
		<path class="st97" d="M35.6,86.6c0,0.7-4,1.2-8.9,1.2c-4.9,0-8.9-0.5-8.9-1.2c0-0.7,4-1.2,8.9-1.2C31.7,85.4,35.6,85.9,35.6,86.6"
			/>
		<path class="st98" d="M35.5,86.6c0,0.6-3.9,1.2-8.7,1.2c-4.8,0-8.7-0.5-8.7-1.2c0-0.6,3.9-1.2,8.7-1.2
			C31.6,85.4,35.5,85.9,35.5,86.6"/>
		<path class="st99" d="M35.4,86.6c0,0.6-3.9,1.1-8.6,1.1c-4.8,0-8.6-0.5-8.6-1.1c0-0.6,3.9-1.1,8.6-1.1
			C31.5,85.5,35.4,86,35.4,86.6"/>
		<path class="st100" d="M35.3,86.6c0,0.6-3.8,1.1-8.5,1.1c-4.7,0-8.5-0.5-8.5-1.1c0-0.6,3.8-1.1,8.5-1.1
			C31.5,85.5,35.3,86,35.3,86.6"/>
		<path class="st101" d="M53.5,44.5c0,19.3-12,30.2-26.8,30.2C12,74.7,0,63.9,0,44.5S12,0,26.8,0C41.6,0,53.5,25.2,53.5,44.5"/>
		<path class="st102" d="M53.3,44.4c0,19.2-11.9,30-26.6,30c-14.7,0-26.6-10.8-26.6-30S12,0.1,26.7,0.1
			C41.4,0.1,53.3,25.1,53.3,44.4"/>
		<path class="st103" d="M53.1,44.2C53.1,63.3,41.3,74,26.7,74C12.1,74,0.2,63.3,0.2,44.2s11.8-44,26.5-44
			C41.3,0.2,53.1,25.1,53.1,44.2"/>
		<path class="st104" d="M52.9,44c0,19-11.8,29.6-26.3,29.6C12.1,73.7,0.3,63,0.3,44c0-19,11.8-43.7,26.3-43.7
			C41.2,0.3,52.9,25,52.9,44"/>
		<path class="st105" d="M52.7,43.8c0,18.9-11.7,29.5-26.1,29.5c-14.4,0-26.1-10.6-26.1-29.5S12.2,0.4,26.6,0.4
			C41,0.4,52.7,25,52.7,43.8"/>
		<path class="st106" d="M52.5,43.7c0,18.8-11.6,29.3-26,29.3c-14.4,0-26-10.5-26-29.3s11.6-43.2,26-43.2
			C40.9,0.5,52.5,24.9,52.5,43.7"/>
		<path class="st107" d="M52.3,43.5c0,18.7-11.6,29.1-25.8,29.1c-14.3,0-25.8-10.4-25.8-29.1c0-18.7,11.6-42.9,25.8-42.9
			C40.8,0.6,52.3,24.9,52.3,43.5"/>
		<path class="st108" d="M52.1,43.3c0,18.5-11.5,28.9-25.7,28.9c-14.2,0-25.7-10.4-25.7-28.9c0-18.5,11.5-42.7,25.7-42.7
			C40.6,0.7,52.1,24.8,52.1,43.3"/>
		<path class="st109" d="M51.9,43.2c0,18.4-11.4,28.7-25.5,28.7c-14.1,0-25.5-10.3-25.5-28.7S12.3,0.8,26.4,0.8
			C40.5,0.8,51.9,24.7,51.9,43.2"/>
		<path class="st110" d="M51.7,43c0,18.3-11.3,28.6-25.3,28.6C12.4,71.6,1,61.3,1,43S12.4,0.9,26.4,0.9C40.4,0.9,51.7,24.7,51.7,43"
			/>
		<path class="st111" d="M51.5,42.8c0,18.2-11.3,28.4-25.2,28.4C12.4,71.2,1.2,61,1.2,42.8C1.2,24.6,12.4,1,26.3,1
			C40.2,1,51.5,24.6,51.5,42.8"/>
		<path class="st112" d="M51.3,42.7c0,18.1-11.2,28.2-25,28.2c-13.8,0-25-10.1-25-28.2c0-18.1,11.2-41.6,25-41.6
			C40.1,1.1,51.3,24.6,51.3,42.7"/>
		<path class="st113" d="M51.1,42.5c0,18-11.1,28-24.9,28c-13.7,0-24.9-10.1-24.9-28S12.5,1.1,26.3,1.1C40,1.1,51.1,24.5,51.1,42.5"
			/>
		<path class="st114" d="M50.9,42.3c0,17.8-11.1,27.8-24.7,27.8c-13.6,0-24.7-10-24.7-27.8S12.6,1.2,26.2,1.2
			C39.9,1.2,50.9,24.5,50.9,42.3"/>
		<path class="st115" d="M50.7,42.1c0,17.7-11,27.7-24.6,27.7c-13.6,0-24.6-9.9-24.6-27.7c0-17.7,11-40.8,24.6-40.8
			C39.7,1.3,50.7,24.4,50.7,42.1"/>
		<path class="st116" d="M50.5,42c0,17.6-10.9,27.5-24.4,27.5C12.6,69.5,1.7,59.6,1.7,42c0-17.6,10.9-40.5,24.4-40.5
			C39.6,1.4,50.5,24.4,50.5,42"/>
		<path class="st117" d="M50.3,41.8c0,17.5-10.9,27.3-24.2,27.3c-13.4,0-24.2-9.8-24.2-27.3S12.7,1.5,26.1,1.5
			C39.5,1.5,50.3,24.3,50.3,41.8"/>
		<path class="st118" d="M50.1,41.6C50.1,59,39.3,68.8,26,68.8C12.7,68.8,2,59,2,41.6s10.8-40,24.1-40C39.3,1.6,50.1,24.3,50.1,41.6
			"/>
		<path class="st119" d="M49.9,41.5c0,17.3-10.7,26.9-23.9,26.9c-13.2,0-23.9-9.7-23.9-26.9C2.1,24.2,12.8,1.7,26,1.7
			C39.2,1.7,49.9,24.2,49.9,41.5"/>
		<path class="st120" d="M49.7,41.3c0,17.2-10.6,26.8-23.8,26.8c-13.1,0-23.8-9.6-23.8-26.8c0-17.2,10.6-39.5,23.8-39.5
			C39.1,1.8,49.7,24.1,49.7,41.3"/>
		<path class="st121" d="M49.5,41.1c0,17-10.6,26.6-23.6,26.6c-13,0-23.6-9.5-23.6-26.6c0-17,10.6-39.2,23.6-39.2
			C38.9,1.9,49.5,24.1,49.5,41.1"/>
		<path class="st121" d="M49.3,41c0,16.9-10.5,26.4-23.4,26.4C12.9,67.4,2.4,57.9,2.4,41C2.4,24,12.9,2,25.9,2
			C38.8,2,49.3,24,49.3,41"/>
		<path class="st122" d="M49.1,40.8C49.1,57.6,38.7,67,25.8,67C13,67,2.5,57.6,2.5,40.8C2.5,24,13,2.1,25.8,2.1
			C38.7,2.1,49.1,24,49.1,40.8"/>
		<path class="st123" d="M48.9,40.6c0,16.7-10.4,26-23.1,26c-12.8,0-23.1-9.3-23.1-26C2.6,23.9,13,2.2,25.8,2.2
			C38.5,2.2,48.9,23.9,48.9,40.6"/>
		<path class="st124" d="M48.7,40.4c0,16.6-10.3,25.9-23,25.9c-12.7,0-23-9.3-23-25.9S13,2.3,25.7,2.3C38.4,2.3,48.7,23.9,48.7,40.4
			"/>
		<path class="st125" d="M48.5,40.3C48.5,56.7,38.3,66,25.7,66C13.1,66,2.9,56.7,2.9,40.3c0-16.5,10.2-37.9,22.8-37.9
			C38.3,2.4,48.5,23.8,48.5,40.3"/>
		<path class="st126" d="M48.3,40.1c0,16.3-10.1,25.5-22.6,25.5C13.1,65.6,3,56.5,3,40.1C3,23.8,13.1,2.5,25.6,2.5
			C38.1,2.5,48.3,23.8,48.3,40.1"/>
		<path class="st127" d="M48.1,39.9c0,16.2-10.1,25.3-22.5,25.3c-12.4,0-22.5-9.1-22.5-25.3c0-16.2,10.1-37.4,22.5-37.4
			C38,2.6,48.1,23.7,48.1,39.9"/>
		<path class="st128" d="M47.9,39.8c0,16.1-10,25.1-22.3,25.1c-12.3,0-22.3-9-22.3-25.1c0-16.1,10-37.1,22.3-37.1
			C37.9,2.7,47.9,23.7,47.9,39.8"/>
		<path class="st129" d="M47.7,39.6c0,16-9.9,25-22.2,25c-12.2,0-22.2-9-22.2-25c0-16,9.9-36.8,22.2-36.8
			C37.8,2.8,47.7,23.6,47.7,39.6"/>
		<path class="st130" d="M47.5,39.4c0,15.9-9.9,24.8-22,24.8c-12.2,0-22-8.9-22-24.8c0-15.9,9.9-36.6,22-36.6
			C37.6,2.9,47.5,23.5,47.5,39.4"/>
		<path class="st131" d="M47.3,39.3c0,15.8-9.8,24.6-21.9,24.6C13.4,63.9,3.6,55,3.6,39.3C3.6,23.5,13.4,3,25.4,3
			C37.5,3,47.3,23.5,47.3,39.3"/>
		<path class="st132" d="M47.1,39.1c0,15.6-9.7,24.4-21.7,24.4c-12,0-21.7-8.8-21.7-24.4c0-15.7,9.7-36,21.7-36
			C37.4,3.1,47.1,23.4,47.1,39.1"/>
		<path class="st133" d="M46.9,38.9c0,15.5-9.6,24.2-21.5,24.2c-11.9,0-21.5-8.7-21.5-24.2c0-15.5,9.6-35.8,21.5-35.8
			C37.2,3.2,46.9,23.4,46.9,38.9"/>
		<path class="st134" d="M46.7,38.7c0,15.4-9.6,24.1-21.4,24.1c-11.8,0-21.4-8.6-21.4-24.1c0-15.4,9.6-35.5,21.4-35.5
			C37.1,3.3,46.7,23.3,46.7,38.7"/>
		<path class="st135" d="M46.5,38.6c0,15.3-9.5,23.9-21.2,23.9C13.5,62.5,4,53.9,4,38.6C4,23.3,13.5,3.4,25.3,3.4
			C37,3.4,46.5,23.3,46.5,38.6"/>
		<path class="st136" d="M46.3,38.4c0,15.2-9.4,23.7-21.1,23.7c-11.6,0-21.1-8.5-21.1-23.7c0-15.2,9.4-35,21.1-35
			C36.8,3.4,46.3,23.2,46.3,38.4"/>
		<path class="st137" d="M46.1,38.2c0,15.1-9.4,23.5-20.9,23.5c-11.5,0-20.9-8.4-20.9-23.5c0-15.1,9.4-34.7,20.9-34.7
			C36.7,3.5,46.1,23.2,46.1,38.2"/>
		<path class="st138" d="M45.9,38.1c0,15-9.3,23.3-20.7,23.3C13.7,61.4,4.4,53,4.4,38.1c0-15,9.3-34.4,20.7-34.4
			C36.6,3.6,45.9,23.1,45.9,38.1"/>
		<path class="st139" d="M45.7,37.9c0,14.8-9.2,23.2-20.6,23.2c-11.4,0-20.6-8.3-20.6-23.2c0-14.8,9.2-34.2,20.6-34.2
			C36.4,3.7,45.7,23.1,45.7,37.9"/>
		<path class="st140" d="M45.5,37.7c0,14.7-9.1,23-20.4,23c-11.3,0-20.4-8.2-20.4-23C4.6,23,13.8,3.8,25,3.8
			C36.3,3.8,45.5,23,45.5,37.7"/>
		<path class="st141" d="M45.3,37.6c0,14.6-9.1,22.8-20.3,22.8c-11.2,0-20.3-8.2-20.3-22.8C4.7,22.9,13.8,3.9,25,3.9
			C36.2,3.9,45.3,22.9,45.3,37.6"/>
		<path class="st142" d="M45.2,37.5c0,14.6-9.1,22.7-20.2,22.7c-11.2,0-20.2-8.2-20.2-22.7C4.8,22.9,13.8,4,25,4
			C36.1,4,45.2,22.9,45.2,37.5"/>
		<path class="st143" d="M45.1,37.4c0,14.5-9,22.7-20.2,22.7C13.8,60.1,4.8,52,4.8,37.4C4.8,22.9,13.8,4,25,4
			C36.1,4,45.1,22.9,45.1,37.4"/>
		<path class="st144" d="M45.1,37.4c0,14.5-9,22.6-20.1,22.6C13.8,60,4.8,51.9,4.8,37.4c0-14.5,9-33.3,20.1-33.3
			C36.1,4.1,45.1,22.9,45.1,37.4"/>
		<path class="st145" d="M45,37.3c0,14.4-9,22.6-20.1,22.6c-11.1,0-20.1-8.1-20.1-22.6c0-14.4,9-33.2,20.1-33.2
			C36,4.1,45,22.9,45,37.3"/>
		<path class="st146" d="M44.9,37.3c0,14.4-9,22.5-20,22.5c-11.1,0-20-8.1-20-22.5c0-14.4,9-33.1,20-33.1
			C36,4.2,44.9,22.9,44.9,37.3"/>
		<path class="st147" d="M44.9,37.2c0,14.4-8.9,22.4-20,22.4c-11,0-20-8.1-20-22.4c0-14.4,8.9-33,20-33
			C35.9,4.2,44.9,22.9,44.9,37.2"/>
		<path class="st148" d="M44.8,37.2c0,14.3-8.9,22.4-19.9,22.4c-11,0-19.9-8-19.9-22.4C5,22.9,13.9,4.3,24.9,4.3
			C35.9,4.3,44.8,22.9,44.8,37.2"/>
		<path class="st149" d="M44.7,37.1c0,14.3-8.9,22.3-19.9,22.3c-11,0-19.9-8-19.9-22.3C5,22.8,13.9,4.3,24.9,4.3
			C35.8,4.3,44.7,22.8,44.7,37.1"/>
		<path class="st150" d="M44.7,37.1c0,14.2-8.9,22.2-19.8,22.2C13.9,59.3,5,51.3,5,37.1C5,22.8,13.9,4.4,24.8,4.4
			C35.8,4.4,44.7,22.8,44.7,37.1"/>
		<path class="st151" d="M44.6,37c0,14.2-8.8,22.2-19.8,22.2c-10.9,0-19.8-8-19.8-22.2c0-14.2,8.8-32.6,19.8-32.6
			C35.7,4.4,44.6,22.8,44.6,37"/>
		<path class="st152" d="M44.5,37c0,14.2-8.8,22.1-19.7,22.1c-10.9,0-19.7-8-19.7-22.1c0-14.2,8.8-32.5,19.7-32.5
			C35.7,4.5,44.5,22.8,44.5,37"/>
		<path class="st153" d="M44.5,36.9C44.5,51,35.7,59,24.8,59C13.9,59,5.1,51,5.1,36.9c0-14.1,8.8-32.4,19.7-32.4
			C35.7,4.5,44.5,22.8,44.5,36.9"/>
		<path class="st154" d="M44.4,36.8c0,14.1-8.8,22-19.6,22c-10.8,0-19.6-7.9-19.6-22C5.2,22.8,14,4.6,24.8,4.6
			C35.6,4.6,44.4,22.8,44.4,36.8"/>
		<path class="st155" d="M44.3,36.8c0,14-8.8,21.9-19.5,21.9C14,58.7,5.2,50.8,5.2,36.8c0-14,8.8-32.2,19.6-32.2
			C35.6,4.6,44.3,22.8,44.3,36.8"/>
		<path class="st156" d="M44.3,36.7c0,14-8.7,21.9-19.5,21.9C14,58.6,5.3,50.7,5.3,36.7c0-14,8.7-32.1,19.5-32.1
			C35.5,4.7,44.3,22.7,44.3,36.7"/>
		<path class="st157" d="M44.2,36.7c0,13.9-8.7,21.8-19.4,21.8C14,58.5,5.3,50.6,5.3,36.7c0-13.9,8.7-32,19.5-32
			C35.5,4.7,44.2,22.7,44.2,36.7"/>
		<path class="st158" d="M44.1,36.6c0,13.9-8.7,21.8-19.4,21.8C14,58.4,5.3,50.5,5.3,36.6C5.3,22.7,14,4.7,24.7,4.7
			C35.4,4.7,44.1,22.7,44.1,36.6"/>
		<path class="st159" d="M44.1,36.6c0,13.9-8.7,21.7-19.3,21.7C14,58.3,5.4,50.4,5.4,36.6C5.4,22.7,14,4.8,24.7,4.8
			C35.4,4.8,44.1,22.7,44.1,36.6"/>
		<path class="st160" d="M44,36.5c0,13.8-8.6,21.6-19.3,21.6C14,58.1,5.4,50.3,5.4,36.5C5.4,22.7,14,4.8,24.7,4.8
			C35.3,4.8,44,22.7,44,36.5"/>
		<path class="st161" d="M43.9,36.5c0,13.8-8.6,21.6-19.2,21.6C14,58,5.4,50.2,5.4,36.5C5.4,22.7,14,4.9,24.7,4.9
			C35.3,4.9,43.9,22.7,43.9,36.5"/>
		<path class="st162" d="M43.9,36.4c0,13.7-8.6,21.5-19.2,21.5c-10.6,0-19.2-7.8-19.2-21.5c0-13.7,8.6-31.5,19.2-31.5
			C35.3,4.9,43.9,22.7,43.9,36.4"/>
		<path class="st163" d="M43.8,36.3c0,13.7-8.6,21.5-19.1,21.5C14.1,57.8,5.5,50,5.5,36.3C5.5,22.6,14.1,5,24.6,5
			C35.2,5,43.8,22.6,43.8,36.3"/>
		<path class="st164" d="M43.7,36.3c0,13.7-8.5,21.4-19.1,21.4c-10.5,0-19.1-7.7-19.1-21.4C5.5,22.6,14.1,5,24.6,5
			C35.2,5,43.7,22.6,43.7,36.3"/>
		<path class="st165" d="M43.6,36.2c0,13.6-8.5,21.3-19,21.3c-10.5,0-19-7.7-19-21.3c0-13.6,8.5-31.1,19-31.1
			C35.1,5.1,43.6,22.6,43.6,36.2"/>
		<path class="st166" d="M43.6,36.2c0,13.6-8.5,21.3-19,21.3c-10.5,0-19-7.7-19-21.3c0-13.6,8.5-31,19-31
			C35.1,5.1,43.6,22.6,43.6,36.2"/>
		<path class="st167" d="M43.5,36.1c0,13.5-8.5,21.2-18.9,21.2c-10.5,0-18.9-7.7-18.9-21.2c0-13.5,8.5-30.9,18.9-30.9
			C35,5.2,43.5,22.6,43.5,36.1"/>
		<path class="st168" d="M43.4,36.1c0,13.5-8.5,21.1-18.9,21.1c-10.4,0-18.9-7.7-18.9-21.1c0-13.5,8.5-30.8,18.9-30.8
			C35,5.2,43.4,22.6,43.4,36.1"/>
		<path class="st169" d="M43.4,36c0,13.4-8.4,21.1-18.8,21.1C14.1,57.1,5.7,49.5,5.7,36c0-13.4,8.4-30.7,18.8-30.7
			C34.9,5.3,43.4,22.6,43.4,36"/>
		<path class="st170" d="M43.3,36c0,13.4-8.4,21-18.8,21C14.2,57,5.7,49.4,5.7,36c0-13.4,8.4-30.6,18.8-30.6
			C34.9,5.3,43.3,22.6,43.3,36"/>
		<path class="st171" d="M43.2,35.9c0,13.4-8.4,21-18.7,21c-10.3,0-18.7-7.6-18.7-21c0-13.4,8.4-30.5,18.7-30.5
			C34.9,5.4,43.2,22.5,43.2,35.9"/>
		<path class="st172" d="M43.2,35.8c0,13.3-8.4,20.9-18.7,20.9c-10.3,0-18.7-7.6-18.7-20.9c0-13.3,8.4-30.4,18.7-30.4
			C34.8,5.4,43.2,22.5,43.2,35.8"/>
		<path class="st173" d="M43.1,35.8c0,13.3-8.3,20.8-18.6,20.8c-10.3,0-18.6-7.6-18.6-20.8c0-13.3,8.3-30.3,18.6-30.3
			C34.8,5.5,43.1,22.5,43.1,35.8"/>
		<path class="st174" d="M43,35.7c0,13.2-8.3,20.8-18.6,20.8C14.2,56.5,5.9,49,5.9,35.7c0-13.2,8.3-30.2,18.6-30.2
			C34.7,5.5,43,22.5,43,35.7"/>
		<path class="st175" d="M43,35.7c0,13.2-8.3,20.7-18.5,20.7c-10.2,0-18.5-7.5-18.5-20.7c0-13.2,8.3-30.1,18.5-30.1
			C34.7,5.6,43,22.5,43,35.7"/>
		<path class="st176" d="M42.9,35.6c0,13.2-8.3,20.7-18.5,20.7C14.2,56.3,6,48.8,6,35.6c0-13.2,8.3-30,18.5-30
			C34.6,5.6,42.9,22.5,42.9,35.6"/>
		<path class="st177" d="M42.8,35.6c0,13.1-8.3,20.6-18.4,20.6C14.2,56.2,6,48.7,6,35.6C6,22.5,14.2,5.7,24.4,5.7
			C34.6,5.7,42.8,22.5,42.8,35.6"/>
		<path class="st178" d="M42.8,35.5c0,13.1-8.2,20.5-18.4,20.5C14.3,56.1,6,48.6,6,35.5C6,22.4,14.3,5.7,24.4,5.7
			C34.5,5.7,42.8,22.4,42.8,35.5"/>
		<path class="st179" d="M42.7,35.5c0,13-8.2,20.5-18.3,20.5c-10.1,0-18.3-7.4-18.3-20.5c0-13,8.2-29.7,18.3-29.7
			C34.5,5.8,42.7,22.4,42.7,35.5"/>
		<path class="st180" d="M42.6,35.4c0,13-8.2,20.4-18.3,20.4c-10.1,0-18.3-7.4-18.3-20.4c0-13,8.2-29.6,18.3-29.6
			C34.5,5.8,42.6,22.4,42.6,35.4"/>
		<path class="st181" d="M42.6,35.4c0,12.9-8.2,20.4-18.2,20.4c-10.1,0-18.2-7.4-18.2-20.4c0-12.9,8.2-29.5,18.2-29.5
			C34.4,5.9,42.6,22.4,42.6,35.4"/>
		<path class="st182" d="M42.5,35.3c0,12.9-8.1,20.3-18.2,20.3c-10,0-18.2-7.4-18.2-20.3S14.3,5.9,24.3,5.9
			C34.4,5.9,42.5,22.4,42.5,35.3"/>
		<path class="st183" d="M42.4,35.2c0,12.9-8.1,20.2-18.1,20.2c-10,0-18.1-7.4-18.1-20.2C6.2,22.4,14.3,6,24.3,6
			C34.3,6,42.4,22.4,42.4,35.2"/>
		<path class="st184" d="M42.4,35.2c0,12.8-8.1,20.2-18.1,20.2c-10,0-18.1-7.4-18.1-20.2C6.2,22.4,14.3,6,24.3,6
			C34.3,6,42.4,22.4,42.4,35.2"/>
		<path class="st185" d="M42.3,35.1c0,12.8-8.1,20.1-18,20.1c-10,0-18-7.3-18-20.1c0-12.8,8.1-29.1,18-29.1
			C34.2,6.1,42.3,22.4,42.3,35.1"/>
		<path class="st186" d="M42.2,35.1c0,12.7-8,20-18,20c-9.9,0-18-7.3-18-20c0-12.7,8-29,18-29C34.2,6.1,42.2,22.3,42.2,35.1"/>
		<path class="st187" d="M42.2,35c0,12.7-8,20-17.9,20c-9.9,0-17.9-7.3-17.9-20c0-12.7,8-28.9,17.9-28.9C34.2,6.1,42.2,22.3,42.2,35
			"/>
		<path class="st188" d="M42.1,35c0,12.7-8,19.9-17.9,19.9c-9.9,0-17.9-7.3-17.9-19.9c0-12.7,8-28.8,17.9-28.8
			C34.1,6.2,42.1,22.3,42.1,35"/>
		<path class="st189" d="M42,34.9c0,12.6-8,19.9-17.8,19.9c-9.8,0-17.8-7.3-17.8-19.9c0-12.6,8-28.7,17.8-28.7
			C34.1,6.2,42,22.3,42,34.9"/>
		<path class="st190" d="M42,34.9c0,12.6-8,19.8-17.8,19.8c-9.8,0-17.8-7.2-17.8-19.8c0-12.6,8-28.6,17.8-28.6
			C34,6.3,42,22.3,42,34.9"/>
		<path class="st191" d="M41.9,34.8c0,12.5-7.9,19.7-17.7,19.7c-9.8,0-17.7-7.2-17.7-19.7c0-12.5,7.9-28.5,17.7-28.5
			C34,6.3,41.9,22.3,41.9,34.8"/>
		<path class="st192" d="M41.8,34.7c0,12.5-7.9,19.7-17.7,19.7c-9.8,0-17.7-7.2-17.7-19.7c0-12.5,7.9-28.4,17.7-28.4
			C33.9,6.4,41.8,22.3,41.8,34.7"/>
		<path class="st193" d="M41.8,34.7c0,12.4-7.9,19.6-17.6,19.6c-9.7,0-17.6-7.2-17.6-19.6S14.4,6.4,24.2,6.4
			C33.9,6.4,41.8,22.2,41.8,34.7"/>
		<path class="st194" d="M41.7,34.6c0,12.4-7.9,19.6-17.6,19.6c-9.7,0-17.6-7.2-17.6-19.6c0-12.4,7.9-28.1,17.6-28.1
			C33.8,6.5,41.7,22.2,41.7,34.6"/>
		<path class="st195" d="M41.6,34.6c0,12.4-7.8,19.5-17.5,19.5c-9.7,0-17.5-7.1-17.5-19.5c0-12.4,7.8-28,17.5-28
			C33.8,6.5,41.6,22.2,41.6,34.6"/>
		<path class="st196" d="M41.6,34.5c0,12.3-7.8,19.4-17.5,19.4c-9.6,0-17.5-7.1-17.5-19.4c0-12.3,7.8-27.9,17.5-27.9
			C33.8,6.6,41.6,22.2,41.6,34.5"/>
		<path class="st197" d="M41.5,34.5c0,12.3-7.8,19.4-17.4,19.4c-9.6,0-17.4-7.1-17.4-19.4c0-12.3,7.8-27.8,17.4-27.8
			C33.7,6.6,41.5,22.2,41.5,34.5"/>
		<path class="st198" d="M41.4,34.4c0,12.2-7.8,19.3-17.4,19.3c-9.6,0-17.4-7.1-17.4-19.3c0-12.2,7.8-27.7,17.4-27.7
			C33.7,6.7,41.4,22.2,41.4,34.4"/>
		<path class="st199" d="M41.4,34.4c0,12.2-7.7,19.3-17.3,19.3c-9.6,0-17.3-7.1-17.3-19.3c0-12.2,7.7-27.6,17.3-27.6
			C33.6,6.7,41.4,22.2,41.4,34.4"/>
		<path class="st200" d="M41.3,34.3c0,12.2-7.7,19.2-17.3,19.2c-9.5,0-17.3-7-17.3-19.2S14.5,6.8,24.1,6.8
			C33.6,6.8,41.3,22.1,41.3,34.3"/>
		<path class="st201" d="M41.2,34.2c0,12.1-7.7,19.1-17.2,19.1c-9.5,0-17.2-7-17.2-19.1C6.8,22.1,14.5,6.8,24,6.8
			C33.5,6.8,41.2,22.1,41.2,34.2"/>
		<path class="st202" d="M41.2,34.2c0,12.1-7.7,19.1-17.2,19.1c-9.5,0-17.2-7-17.2-19.1C6.9,22.1,14.5,6.9,24,6.9
			C33.5,6.9,41.2,22.1,41.2,34.2"/>
		<path class="st203" d="M41.1,34.1c0,12-7.7,19-17.1,19c-9.4,0-17.1-7-17.1-19c0-12,7.7-27.2,17.1-27.2
			C33.4,6.9,41.1,22.1,41.1,34.1"/>
		<path class="st204" d="M41,34.1c0,12-7.6,19-17,19c-9.4,0-17-7-17-19C6.9,22.1,14.6,7,24,7C33.4,7,41,22.1,41,34.1"/>
		<path class="st205" d="M41,34c0,11.9-7.6,18.9-17,18.9C14.6,52.9,7,46,7,34C7,22.1,14.6,7,24,7C33.4,7,41,22.1,41,34"/>
		<path class="st206" d="M40.9,34c0,11.9-7.6,18.8-16.9,18.8C14.6,52.8,7,45.9,7,34C7,22.1,14.6,7.1,24,7.1
			C33.3,7.1,40.9,22.1,40.9,34"/>
		<path class="st207" d="M40.8,33.9c0,11.9-7.6,18.8-16.9,18.8C14.6,52.7,7,45.8,7,33.9C7,22.1,14.6,7.1,23.9,7.1
			C33.3,7.1,40.8,22.1,40.8,33.9"/>
		<path class="st208" d="M40.8,33.9c0,11.8-7.5,18.7-16.8,18.7c-9.3,0-16.8-6.9-16.8-18.7C7.1,22,14.6,7.2,23.9,7.2
			C33.2,7.2,40.8,22,40.8,33.9"/>
		<path class="st209" d="M40.7,33.8c0,11.8-7.5,18.6-16.8,18.6c-9.3,0-16.8-6.9-16.8-18.6S14.6,7.2,23.9,7.2
			C33.2,7.2,40.7,22,40.7,33.8"/>
		<path class="st210" d="M40.6,33.8c0,11.7-7.5,18.6-16.7,18.6c-9.2,0-16.7-6.8-16.7-18.6C7.1,22,14.6,7.3,23.9,7.3
			C33.1,7.3,40.6,22,40.6,33.8"/>
		<path class="st211" d="M40.6,33.7c0,11.7-7.5,18.5-16.7,18.5c-9.2,0-16.7-6.8-16.7-18.5S14.7,7.3,23.9,7.3
			C33.1,7.3,40.6,22,40.6,33.7"/>
		<path class="st212" d="M40.5,33.6c0,11.7-7.5,18.5-16.6,18.5c-9.2,0-16.6-6.8-16.6-18.5C7.2,22,14.7,7.4,23.9,7.4
			C33,7.4,40.5,22,40.5,33.6"/>
		<path class="st213" d="M40.4,33.6C40.4,45.2,33,52,23.8,52c-9.2,0-16.6-6.8-16.6-18.4C7.3,22,14.7,7.4,23.8,7.4
			C33,7.4,40.4,22,40.4,33.6"/>
		<path class="st214" d="M40.4,33.5c0,11.6-7.4,18.3-16.5,18.3c-9.1,0-16.5-6.8-16.5-18.3C7.3,22,14.7,7.5,23.8,7.5
			C33,7.5,40.4,22,40.4,33.5"/>
		<path class="st215" d="M40.3,33.5c0,11.5-7.4,18.3-16.5,18.3c-9.1,0-16.5-6.8-16.5-18.3c0-11.5,7.4-26,16.5-26
			C32.9,7.5,40.3,21.9,40.3,33.5"/>
		<path class="st216" d="M40.2,33.4c0,11.5-7.4,18.2-16.4,18.2c-9.1,0-16.4-6.7-16.4-18.2c0-11.5,7.4-25.9,16.4-25.9
			C32.9,7.5,40.2,21.9,40.2,33.4"/>
		<path class="st217" d="M40.2,33.4c0,11.4-7.3,18.2-16.4,18.2c-9.1,0-16.4-6.7-16.4-18.2c0-11.4,7.3-25.8,16.4-25.8
			C32.8,7.6,40.2,21.9,40.2,33.4"/>
		<path class="st218" d="M40.1,33.3c0,11.4-7.3,18.1-16.3,18.1c-9,0-16.3-6.7-16.3-18.1S14.7,7.6,23.8,7.6
			C32.8,7.6,40.1,21.9,40.1,33.3"/>
		<path class="st219" d="M40,33.3c0,11.4-7.3,18-16.3,18c-9,0-16.3-6.7-16.3-18c0-11.4,7.3-25.6,16.3-25.6C32.7,7.7,40,21.9,40,33.3
			"/>
		<path class="st220" d="M40,33.2c0,11.3-7.3,18-16.2,18c-9,0-16.2-6.7-16.2-18S14.8,7.7,23.7,7.7C32.7,7.7,40,21.9,40,33.2"/>
		<path class="st221" d="M39.9,33.1c0,11.3-7.2,17.9-16.2,17.9c-8.9,0-16.2-6.6-16.2-17.9c0-11.3,7.2-25.4,16.2-25.4
			C32.7,7.8,39.9,21.9,39.9,33.1"/>
		<path class="st222" d="M39.8,33.1c0,11.2-7.2,17.9-16.1,17.9c-8.9,0-16.1-6.6-16.1-17.9S14.8,7.8,23.7,7.8
			C32.6,7.8,39.8,21.8,39.8,33.1"/>
		<path class="st223" d="M39.8,33c0,11.2-7.2,17.8-16.1,17.8c-8.9,0-16.1-6.6-16.1-17.8c0-11.2,7.2-25.1,16.1-25.1
			C32.6,7.9,39.8,21.8,39.8,33"/>
		<path class="st224" d="M39.7,33c0,11.2-7.2,17.7-16,17.7c-8.9,0-16-6.6-16-17.7s7.2-25,16-25C32.5,7.9,39.7,21.8,39.7,33"/>
		<path class="st225" d="M39.6,32.9c0,11.1-7.2,17.7-16,17.7c-8.8,0-16-6.6-16-17.7C7.7,21.8,14.8,8,23.7,8
			C32.5,8,39.6,21.8,39.6,32.9"/>
		<path class="st226" d="M39.6,32.9c0,11.1-7.1,17.6-15.9,17.6c-8.8,0-15.9-6.5-15.9-17.6C7.7,21.8,14.8,8,23.6,8
			C32.4,8,39.6,21.8,39.6,32.9"/>
		<path class="st227" d="M39.5,32.8c0,11-7.1,17.5-15.9,17.5c-8.8,0-15.9-6.5-15.9-17.5S14.9,8.1,23.6,8.1
			C32.4,8.1,39.5,21.8,39.5,32.8"/>
		<path class="st228" d="M39.4,32.8c0,11-7.1,17.5-15.8,17.5c-8.7,0-15.8-6.5-15.8-17.5c0-11,7.1-24.6,15.8-24.6
			C32.3,8.1,39.4,21.8,39.4,32.8"/>
		<path class="st229" d="M39.4,32.7c0,10.9-7.1,17.4-15.8,17.4c-8.7,0-15.8-6.5-15.8-17.4S14.9,8.2,23.6,8.2
			C32.3,8.2,39.4,21.8,39.4,32.7"/>
		<path class="st230" d="M39.3,32.6c0,10.9-7,17.4-15.7,17.4c-8.7,0-15.7-6.5-15.7-17.4c0-10.9,7-24.4,15.7-24.4
			C32.3,8.2,39.3,21.7,39.3,32.6"/>
		<path class="st231" d="M39.2,32.6c0,10.9-7,17.3-15.7,17.3c-8.7,0-15.7-6.4-15.7-17.3s7-24.3,15.7-24.3
			C32.2,8.3,39.2,21.7,39.2,32.6"/>
		<path class="st232" d="M39.2,32.5c0,10.8-7,17.2-15.6,17.2c-8.6,0-15.6-6.4-15.6-17.2c0-10.8,7-24.2,15.6-24.2
			C32.2,8.3,39.2,21.7,39.2,32.5"/>
		<path class="st233" d="M39.1,32.5c0,10.8-7,17.2-15.6,17.2C14.9,49.7,8,43.3,8,32.5s7-24.1,15.6-24.1
			C32.1,8.4,39.1,21.7,39.1,32.5"/>
		<path class="st234" d="M39,32.4c0,10.7-6.9,17.1-15.5,17.1C14.9,49.5,8,43.2,8,32.4s6.9-24,15.5-24C32.1,8.4,39,21.7,39,32.4"/>
		<path class="st235" d="M39,32.4c0,10.7-6.9,17.1-15.5,17.1C15,49.4,8,43.1,8,32.4C8,21.7,15,8.5,23.5,8.5C32,8.5,39,21.7,39,32.4"
			/>
		<path class="st236" d="M38.9,32.3c0,10.7-6.9,17-15.4,17c-8.5,0-15.4-6.3-15.4-17S15,8.5,23.5,8.5C32,8.5,38.9,21.7,38.9,32.3"/>
		<path class="st237" d="M38.8,32.3c0,10.6-6.9,16.9-15.4,16.9c-8.5,0-15.4-6.3-15.4-16.9C8.1,21.6,15,8.6,23.5,8.6
			C31.9,8.6,38.8,21.6,38.8,32.3"/>
		<path class="st238" d="M38.8,32.2c0,10.6-6.9,16.9-15.3,16.9c-8.5,0-15.3-6.3-15.3-16.9S15,8.6,23.4,8.6
			C31.9,8.6,38.8,21.6,38.8,32.2"/>
		<path class="st239" d="M38.7,32.2c0,10.5-6.8,16.8-15.3,16.8C15,49,8.2,42.7,8.2,32.2C8.2,21.6,15,8.7,23.4,8.7
			C31.9,8.7,38.7,21.6,38.7,32.2"/>
		<path class="st240" d="M38.6,32.1c0,10.5-6.8,16.8-15.2,16.8c-8.4,0-15.2-6.3-15.2-16.8S15,8.7,23.4,8.7
			C31.8,8.7,38.6,21.6,38.6,32.1"/>
		<path class="st241" d="M38.6,32c0,10.4-6.8,16.7-15.2,16.7C15,48.7,8.2,42.5,8.2,32C8.2,21.6,15,8.8,23.4,8.8
			C31.8,8.8,38.6,21.6,38.6,32"/>
		<path class="st242" d="M38.5,32c0,10.4-6.8,16.6-15.1,16.6C15,48.6,8.3,42.4,8.3,32S15,8.8,23.4,8.8C31.7,8.8,38.5,21.6,38.5,32"
			/>
		<path class="st243" d="M38.4,31.9c0,10.4-6.7,16.6-15.1,16.6c-8.3,0-15.1-6.2-15.1-16.6S15,8.9,23.4,8.9
			C31.7,8.9,38.4,21.6,38.4,31.9"/>
		<path class="st244" d="M38.4,31.9c0,10.3-6.7,16.5-15,16.5c-8.3,0-15-6.2-15-16.5c0-10.3,6.7-23,15-23
			C31.6,8.9,38.4,21.5,38.4,31.9"/>
		<path class="st245" d="M38.3,31.8c0,10.3-6.7,16.5-15,16.5c-8.3,0-15-6.2-15-16.5S15.1,9,23.3,9C31.6,9,38.3,21.5,38.3,31.8"/>
		<path class="st246" d="M38.2,31.8c0,10.2-6.7,16.4-14.9,16.4c-8.2,0-14.9-6.2-14.9-16.4C8.4,21.5,15.1,9,23.3,9
			C31.5,9,38.2,21.5,38.2,31.8"/>
		<path class="st247" d="M38.2,31.7c0,10.2-6.7,16.3-14.9,16.3c-8.2,0-14.9-6.1-14.9-16.3S15.1,9,23.3,9C31.5,9,38.2,21.5,38.2,31.7
			"/>
		<path class="st248" d="M38.1,31.7c0,10.2-6.6,16.3-14.8,16.3c-8.2,0-14.8-6.1-14.8-16.3c0-10.2,6.6-22.6,14.8-22.6
			C31.5,9.1,38.1,21.5,38.1,31.7"/>
		<path class="st249" d="M38,31.6c0,10.1-6.6,16.2-14.8,16.2c-8.1,0-14.8-6.1-14.8-16.2S15.1,9.1,23.3,9.1C31.4,9.1,38,21.5,38,31.6
			"/>
		<path class="st250" d="M38,31.5c0,10.1-6.6,16.1-14.7,16.1c-8.1,0-14.7-6.1-14.7-16.1c0-10.1,6.6-22.4,14.7-22.4
			C31.4,9.2,38,21.5,38,31.5"/>
		<path class="st251" d="M37.9,31.5c0,10-6.6,16.1-14.6,16.1c-8.1,0-14.6-6.1-14.6-16.1S15.1,9.2,23.2,9.2
			C31.3,9.2,37.9,21.5,37.9,31.5"/>
		<path class="st252" d="M37.8,31.4c0,10-6.5,16-14.6,16c-8.1,0-14.6-6-14.6-16S15.2,9.3,23.2,9.3C31.3,9.3,37.8,21.4,37.8,31.4"/>
		<path class="st253" d="M37.8,31.4c0,10-6.5,16-14.5,16c-8,0-14.5-6-14.5-16c0-10,6.5-22,14.5-22C31.2,9.3,37.8,21.4,37.8,31.4"/>
		<path class="st254" d="M37.7,31.3c0,9.9-6.5,15.9-14.5,15.9c-8,0-14.5-6-14.5-15.9S15.2,9.4,23.2,9.4
			C31.2,9.4,37.7,21.4,37.7,31.3"/>
		<path class="st255" d="M37.6,31.3c0,9.9-6.5,15.8-14.4,15.8c-8,0-14.4-6-14.4-15.8c0-9.9,6.5-21.8,14.4-21.8
			C31.2,9.4,37.6,21.4,37.6,31.3"/>
		<path class="st256" d="M37.6,31.2C37.6,41,31.1,47,23.2,47c-7.9,0-14.4-6-14.4-15.8S15.2,9.5,23.2,9.5
			C31.1,9.5,37.6,21.4,37.6,31.2"/>
		<path class="st257" d="M37.5,31.2c0,9.8-6.4,15.7-14.3,15.7S8.8,40.9,8.8,31.2c0-9.8,6.4-21.6,14.3-21.6S37.5,21.4,37.5,31.2"/>
		<path class="st258" d="M37.4,31.1c0,9.7-6.4,15.7-14.3,15.7c-7.9,0-14.3-5.9-14.3-15.7S15.2,9.6,23.1,9.6
			C31,9.6,37.4,21.4,37.4,31.1"/>
		<path class="st259" d="M37.3,31c0,9.7-6.4,15.6-14.2,15.6c-7.9,0-14.2-5.9-14.2-15.6c0-9.7,6.4-21.4,14.2-21.4
			C31,9.6,37.3,21.3,37.3,31"/>
		<path class="st260" d="M37.3,31c0,9.7-6.4,15.5-14.2,15.5c-7.8,0-14.2-5.9-14.2-15.5S15.3,9.7,23.1,9.7
			C30.9,9.7,37.3,21.3,37.3,31"/>
		<path class="st261" d="M37.2,30.9c0,9.6-6.3,15.5-14.1,15.5c-7.8,0-14.1-5.9-14.1-15.5S15.3,9.7,23.1,9.7
			C30.9,9.7,37.2,21.3,37.2,30.9"/>
		<path class="st262" d="M37.1,30.9c0,9.6-6.3,15.4-14.1,15.4C15.3,46.3,9,40.5,9,30.9S15.3,9.8,23.1,9.8
			C30.8,9.8,37.1,21.3,37.1,30.9"/>
		<path class="st263" d="M37.1,30.8c0,9.5-6.3,15.4-14,15.4c-7.8,0-14-5.8-14-15.4s6.3-21,14-21C30.8,9.8,37.1,21.3,37.1,30.8"/>
		<path class="st264" d="M37,30.8c0,9.5-6.3,15.3-14,15.3c-7.7,0-14-5.8-14-15.3S15.3,9.9,23,9.9C30.8,9.9,37,21.3,37,30.8"/>
		<path class="st265" d="M36.9,30.7c0,9.5-6.2,15.2-13.9,15.2c-7.7,0-13.9-5.8-13.9-15.2S15.3,9.9,23,9.9
			C30.7,9.9,36.9,21.3,36.9,30.7"/>
		<path class="st266" d="M36.9,30.7c0,9.4-6.2,15.2-13.9,15.2c-7.7,0-13.9-5.8-13.9-15.2C9.1,21.2,15.3,10,23,10
			C30.7,10,36.9,21.2,36.9,30.7"/>
		<path class="st267" d="M36.8,30.6c0,9.4-6.2,15.1-13.8,15.1c-7.6,0-13.8-5.7-13.8-15.1S15.3,10,23,10C30.6,10,36.8,21.2,36.8,30.6
			"/>
		<path class="st268" d="M36.7,30.5c0,9.3-6.2,15-13.8,15c-7.6,0-13.8-5.7-13.8-15c0-9.3,6.2-20.5,13.8-20.5
			C30.6,10.1,36.7,21.2,36.7,30.5"/>
		<path class="st269" d="M36.7,30.5c0,9.3-6.1,15-13.7,15c-7.6,0-13.7-5.7-13.7-15S15.4,10.1,23,10.1C30.5,10.1,36.7,21.2,36.7,30.5
			"/>
		<path class="st270" d="M36.6,30.4c0,9.2-6.1,14.9-13.7,14.9c-7.6,0-13.7-5.7-13.7-14.9s6.1-20.3,13.7-20.3
			C30.5,10.2,36.6,21.2,36.6,30.4"/>
		<path class="st271" d="M36.5,30.4c0,9.2-6.1,14.9-13.6,14.9c-7.5,0-13.6-5.7-13.6-14.9s6.1-20.2,13.6-20.2
			C30.4,10.2,36.5,21.2,36.5,30.4"/>
		<path class="st272" d="M36.5,30.3c0,9.2-6.1,14.8-13.6,14.8c-7.5,0-13.6-5.6-13.6-14.8s6.1-20.1,13.6-20.1
			C30.4,10.3,36.5,21.2,36.5,30.3"/>
		<path class="st273" d="M36.4,30.3c0,9.1-6.1,14.7-13.5,14.7c-7.5,0-13.5-5.6-13.5-14.7c0-9.1,6.1-20,13.5-20
			C30.4,10.3,36.4,21.2,36.4,30.3"/>
		<path class="st274" d="M36.3,30.2c0,9.1-6,14.7-13.5,14.7c-7.4,0-13.5-5.6-13.5-14.7s6-19.9,13.5-19.9
			C30.3,10.4,36.3,21.1,36.3,30.2"/>
		<path class="st275" d="M36.3,30.2c0,9-6,14.6-13.4,14.6c-7.4,0-13.4-5.6-13.4-14.6c0-9,6-19.8,13.4-19.8
			C30.3,10.4,36.3,21.1,36.3,30.2"/>
		<path class="st276" d="M36.2,30.1c0,9-6,14.6-13.4,14.6c-7.4,0-13.4-5.6-13.4-14.6s6-19.7,13.4-19.7
			C30.2,10.4,36.2,21.1,36.2,30.1"/>
		<path class="st277" d="M36.1,30.1c0,9-6,14.5-13.3,14.5S9.5,39,9.5,30.1s6-19.6,13.3-19.6S36.1,21.1,36.1,30.1"/>
		<path class="st278" d="M36.1,30c0,8.9-5.9,14.4-13.3,14.4c-7.3,0-13.3-5.5-13.3-14.4s5.9-19.5,13.3-19.5
			C30.1,10.5,36.1,21.1,36.1,30"/>
		<path class="st279" d="M36,29.9c0,8.9-5.9,14.4-13.2,14.4c-7.3,0-13.2-5.5-13.2-14.4s5.9-19.4,13.2-19.4
			C30.1,10.6,36,21.1,36,29.9"/>
		<path class="st280" d="M35.9,29.9c0,8.8-5.9,14.3-13.2,14.3c-7.3,0-13.2-5.5-13.2-14.3s5.9-19.2,13.2-19.2
			C30,10.6,35.9,21.1,35.9,29.9"/>
		<path class="st281" d="M35.9,29.8c0,8.8-5.9,14.3-13.1,14.3c-7.2,0-13.1-5.5-13.1-14.3s5.9-19.1,13.1-19.1
			C30,10.7,35.9,21,35.9,29.8"/>
		<path class="st282" d="M35.8,29.8C35.8,38.5,30,44,22.7,44c-7.2,0-13.1-5.5-13.1-14.2c0-8.7,5.9-19,13.1-19
			C30,10.7,35.8,21,35.8,29.8"/>
		<path class="st283" d="M35.7,29.7c0,8.7-5.8,14.1-13,14.1c-7.2,0-13-5.4-13-14.1s5.8-18.9,13-18.9C29.9,10.8,35.7,21,35.7,29.7"/>
		<path class="st284" d="M35.7,29.7c0,8.7-5.8,14.1-13,14.1c-7.2,0-13-5.4-13-14.1c0-8.7,5.8-18.8,13-18.8
			C29.9,10.8,35.7,21,35.7,29.7"/>
		<path class="st285" d="M35.6,29.6c0,8.6-5.8,14-12.9,14c-7.1,0-12.9-5.4-12.9-14s5.8-18.7,12.9-18.7C29.8,10.9,35.6,21,35.6,29.6"
			/>
		<path class="st286" d="M35.5,29.6c0,8.6-5.8,14-12.9,14c-7.1,0-12.9-5.4-12.9-14s5.8-18.6,12.9-18.6C29.8,10.9,35.5,21,35.5,29.6"
			/>
		<path class="st287" d="M35.5,29.5c0,8.5-5.7,13.9-12.8,13.9c-7.1,0-12.8-5.4-12.8-13.9S15.6,11,22.7,11C29.7,11,35.5,21,35.5,29.5
			"/>
		<path class="st288" d="M35.4,29.4c0,8.5-5.7,13.8-12.8,13.8c-7,0-12.8-5.3-12.8-13.8S15.6,11,22.6,11C29.7,11,35.4,21,35.4,29.4"
			/>
		<path class="st289" d="M35.3,29.4c0,8.5-5.7,13.8-12.7,13.8c-7,0-12.7-5.3-12.7-13.8s5.7-18.3,12.7-18.3
			C29.6,11.1,35.3,20.9,35.3,29.4"/>
		<path class="st290" d="M35.3,29.3c0,8.4-5.7,13.7-12.7,13.7c-7,0-12.7-5.3-12.7-13.7s5.7-18.2,12.7-18.2
			C29.6,11.1,35.3,20.9,35.3,29.3"/>
		<path class="st291" d="M35.2,29.3c0,8.4-5.6,13.6-12.6,13.6c-7,0-12.6-5.3-12.6-13.6s5.6-18.1,12.6-18.1
			C29.6,11.2,35.2,20.9,35.2,29.3"/>
		<path class="st292" d="M35.1,29.2c0,8.3-5.6,13.6-12.6,13.6S10,37.6,10,29.2s5.6-18,12.6-18S35.1,20.9,35.1,29.2"/>
		<path class="st293" d="M35.1,29.2c0,8.3-5.6,13.5-12.5,13.5s-12.5-5.2-12.5-13.5s5.6-17.9,12.5-17.9S35.1,20.9,35.1,29.2"/>
		<path class="st294" d="M35,29.1c0,8.2-5.6,13.5-12.5,13.5c-6.9,0-12.5-5.2-12.5-13.5s5.6-17.8,12.5-17.8
			C29.4,11.3,35,20.9,35,29.1"/>
		<path class="st295" d="M34.9,29.1c0,8.2-5.6,13.4-12.4,13.4c-6.9,0-12.4-5.2-12.4-13.4c0-8.2,5.6-17.7,12.4-17.7
			C29.4,11.4,34.9,20.9,34.9,29.1"/>
		<path class="st296" d="M34.9,29c0,8.2-5.5,13.3-12.4,13.3c-6.8,0-12.4-5.2-12.4-13.3c0-8.2,5.5-17.6,12.4-17.6
			C29.3,11.4,34.9,20.8,34.9,29"/>
		<path class="st297" d="M34.8,28.9c0,8.1-5.5,13.3-12.3,13.3c-6.8,0-12.3-5.2-12.3-13.3s5.5-17.5,12.3-17.5
			C29.3,11.5,34.8,20.8,34.8,28.9"/>
		<path class="st298" d="M34.7,28.9c0,8.1-5.5,13.2-12.2,13.2c-6.8,0-12.2-5.1-12.2-13.2s5.5-17.4,12.2-17.4
			C29.3,11.5,34.7,20.8,34.7,28.9"/>
		<path class="st299" d="M34.7,28.8c0,8-5.5,13.2-12.2,13.2s-12.2-5.1-12.2-13.2s5.5-17.3,12.2-17.3S34.7,20.8,34.7,28.8"/>
		<path class="st300" d="M34.6,28.8c0,8-5.4,13.1-12.1,13.1c-6.7,0-12.1-5.1-12.1-13.1s5.4-17.2,12.1-17.2
			C29.2,11.6,34.6,20.8,34.6,28.8"/>
		<path class="st301" d="M34.5,28.7c0,8-5.4,13-12.1,13c-6.7,0-12.1-5.1-12.1-13s5.4-17.1,12.1-17.1C29.1,11.7,34.5,20.8,34.5,28.7"
			/>
		<path class="st302" d="M34.5,28.7c0,7.9-5.4,13-12,13c-6.7,0-12-5.1-12-13c0-7.9,5.4-17,12-17C29.1,11.7,34.5,20.8,34.5,28.7"/>
		<path class="st303" d="M34.4,28.6c0,7.9-5.4,12.9-12,12.9s-12-5-12-12.9s5.4-16.9,12-16.9S34.4,20.7,34.4,28.6"/>
		<path class="st304" d="M34.3,28.6c0,7.8-5.3,12.9-11.9,12.9c-6.6,0-11.9-5-11.9-12.9c0-7.8,5.3-16.8,11.9-16.8
			C29,11.8,34.3,20.7,34.3,28.6"/>
		<path class="st305" d="M34.3,28.5c0,7.8-5.3,12.8-11.9,12.8c-6.6,0-11.9-5-11.9-12.8s5.3-16.7,11.9-16.7
			C28.9,11.8,34.3,20.7,34.3,28.5"/>
		<path class="st306" d="M34.2,28.5c0,7.7-5.3,12.7-11.8,12.7c-6.5,0-11.8-5-11.8-12.7c0-7.7,5.3-16.6,11.8-16.6
			C28.9,11.9,34.2,20.7,34.2,28.5"/>
		<path class="st307" d="M34.1,28.4c0,7.7-5.3,12.7-11.8,12.7s-11.8-5-11.8-12.7c0-7.7,5.3-16.5,11.8-16.5S34.1,20.7,34.1,28.4"/>
		<path class="st308" d="M34.1,28.3C34.1,36,28.8,41,22.3,41S10.6,36,10.6,28.3S15.8,12,22.3,12S34.1,20.7,34.1,28.3"/>
		<path class="st309" d="M34,28.3c0,7.6-5.2,12.5-11.7,12.5c-6.5,0-11.7-4.9-11.7-12.5c0-7.6,5.2-16.2,11.7-16.2
			C28.8,12,34,20.7,34,28.3"/>
		<path class="st310" d="M33.9,28.2c0,7.6-5.2,12.5-11.6,12.5c-6.4,0-11.6-4.9-11.6-12.5s5.2-16.1,11.6-16.1
			C28.7,12.1,33.9,20.7,33.9,28.2"/>
		<path class="st311" d="M33.9,28.2c0,7.5-5.2,12.4-11.6,12.4c-6.4,0-11.6-4.9-11.6-12.4c0-7.5,5.2-16,11.6-16
			C28.7,12.1,33.9,20.6,33.9,28.2"/>
		<path class="st312" d="M33.8,28.1c0,7.5-5.2,12.4-11.5,12.4c-6.4,0-11.5-4.9-11.5-12.4s5.2-15.9,11.5-15.9
			C28.6,12.2,33.8,20.6,33.8,28.1"/>
		<path class="st313" d="M33.7,28.1c0,7.5-5.1,12.3-11.5,12.3c-6.3,0-11.5-4.9-11.5-12.3c0-7.5,5.1-15.8,11.5-15.8
			C28.6,12.2,33.7,20.6,33.7,28.1"/>
		<path class="st314" d="M33.7,28c0,7.4-5.1,12.2-11.4,12.2c-6.3,0-11.4-4.8-11.4-12.2c0-7.4,5.1-15.7,11.4-15.7
			C28.5,12.3,33.7,20.6,33.7,28"/>
		<path class="st315" d="M33.6,28c0,7.4-5.1,12.2-11.4,12.2c-6.3,0-11.4-4.8-11.4-12.2s5.1-15.6,11.4-15.6
			C28.5,12.3,33.6,20.6,33.6,28"/>
		<path class="st316" d="M33.5,27.9c0,7.3-5.1,12.1-11.3,12.1c-6.3,0-11.3-4.8-11.3-12.1c0-7.3,5.1-15.5,11.3-15.5
			C28.5,12.4,33.5,20.6,33.5,27.9"/>
		<path class="st317" d="M33.5,27.8c0,7.3-5,12.1-11.3,12.1c-6.2,0-11.3-4.8-11.3-12.1s5-15.4,11.3-15.4
			C28.4,12.4,33.5,20.6,33.5,27.8"/>
		<path class="st318" d="M33.4,27.8c0,7.2-5,12-11.2,12s-11.2-4.8-11.2-12c0-7.2,5-15.3,11.2-15.3S33.4,20.5,33.4,27.8"/>
		<path class="st319" d="M33.3,27.7c0,7.2-5,11.9-11.2,11.9S11,34.9,11,27.7s5-15.2,11.2-15.2S33.3,20.5,33.3,27.7"/>
		<path class="st320" d="M33.3,27.7c0,7.2-5,11.9-11.1,11.9C16,39.6,11,34.8,11,27.7s5-15.1,11.1-15.1
			C28.3,12.6,33.3,20.5,33.3,27.7"/>
		<path class="st321" d="M33.2,27.6c0,7.1-5,11.8-11.1,11.8C16,39.4,11,34.7,11,27.6s5-15,11.1-15C28.2,12.6,33.2,20.5,33.2,27.6"/>
		<path class="st322" d="M33.1,27.6c0,7.1-4.9,11.8-11,11.8s-11-4.7-11-11.8c0-7.1,4.9-14.9,11-14.9S33.1,20.5,33.1,27.6"/>
		<path class="st323" d="M33.1,27.5c0,7-4.9,11.7-11,11.7s-11-4.7-11-11.7s4.9-14.8,11-14.8S33.1,20.5,33.1,27.5"/>
		<path class="st324" d="M33,27.5c0,7-4.9,11.6-10.9,11.6s-10.9-4.6-10.9-11.6S16,12.8,22.1,12.8S33,20.5,33,27.5"/>
		<path class="st325" d="M32.9,27.4c0,7-4.9,11.6-10.9,11.6s-10.9-4.6-10.9-11.6c0-7,4.9-14.6,10.9-14.6S32.9,20.4,32.9,27.4"/>
		<path class="st326" d="M32.9,27.3c0,6.9-4.8,11.5-10.8,11.5c-6,0-10.8-4.6-10.8-11.5c0-6.9,4.8-14.5,10.8-14.5
			C28,12.9,32.9,20.4,32.9,27.3"/>
		<path class="st327" d="M32.8,27.3c0,6.9-4.8,11.5-10.8,11.5c-5.9,0-10.8-4.6-10.8-11.5c0-6.9,4.8-14.4,10.8-14.4
			C28,12.9,32.8,20.4,32.8,27.3"/>
		<path class="st328" d="M32.7,27.2c0,6.8-4.8,11.4-10.7,11.4s-10.7-4.6-10.7-11.4C11.3,20.4,16.1,13,22,13S32.7,20.4,32.7,27.2"/>
		<path class="st329" d="M32.7,27.2c0,6.8-4.8,11.3-10.7,11.3S11.3,34,11.3,27.2C11.3,20.4,16.1,13,22,13S32.7,20.4,32.7,27.2"/>
		<path class="st330" d="M32.6,27.1c0,6.7-4.8,11.3-10.6,11.3c-5.9,0-10.6-4.5-10.6-11.3S16.1,13.1,22,13.1
			C27.8,13.1,32.6,20.4,32.6,27.1"/>
		<path class="st331" d="M32.5,27.1c0,6.7-4.7,11.2-10.6,11.2c-5.8,0-10.6-4.5-10.6-11.2c0-6.7,4.7-14,10.6-14
			C27.8,13.1,32.5,20.4,32.5,27.1"/>
		<path class="st332" d="M32.5,27c0,6.7-4.7,11.1-10.5,11.1c-5.8,0-10.5-4.5-10.5-11.1s4.7-13.9,10.5-13.9
			C27.8,13.2,32.5,20.4,32.5,27"/>
		<path class="st333" d="M32.4,27c0,6.6-4.7,11.1-10.5,11.1S11.5,33.6,11.5,27c0-6.6,4.7-13.8,10.5-13.8S32.4,20.3,32.4,27"/>
		<path class="st334" d="M32.3,26.9c0,6.6-4.7,11-10.4,11s-10.4-4.4-10.4-11c0-6.6,4.7-13.7,10.4-13.7S32.3,20.3,32.3,26.9"/>
		<path class="st335" d="M32.3,26.9c0,6.5-4.6,11-10.4,11c-5.7,0-10.4-4.4-10.4-11s4.6-13.6,10.4-13.6
			C27.6,13.3,32.3,20.3,32.3,26.9"/>
		<path class="st336" d="M32.2,26.8c0,6.5-4.6,10.9-10.3,10.9c-5.7,0-10.3-4.4-10.3-10.9c0-6.5,4.6-13.5,10.3-13.5
			C27.6,13.3,32.2,20.3,32.2,26.8"/>
		<path class="st337" d="M32.1,26.7c0,6.5-4.6,10.8-10.3,10.8s-10.3-4.4-10.3-10.8c0-6.5,4.6-13.3,10.3-13.3S32.1,20.3,32.1,26.7"/>
		<path class="st338" d="M32.1,26.7c0,6.4-4.6,10.8-10.2,10.8s-10.2-4.4-10.2-10.8c0-6.4,4.6-13.2,10.2-13.2S32.1,20.3,32.1,26.7"/>
		<path class="st339" d="M32,26.6c0,6.4-4.5,10.7-10.2,10.7S11.7,33,11.7,26.6c0-6.4,4.5-13.1,10.2-13.1S32,20.3,32,26.6"/>
		<path class="st340" d="M31.9,26.6c0,6.3-4.5,10.7-10.1,10.7s-10.1-4.3-10.1-10.7c0-6.3,4.5-13,10.1-13S31.9,20.2,31.9,26.6"/>
		<path class="st341" d="M31.9,26.5c0,6.3-4.5,10.6-10.1,10.6c-5.6,0-10.1-4.3-10.1-10.6c0-6.3,4.5-12.9,10.1-12.9
			C27.4,13.6,31.9,20.2,31.9,26.5"/>
		<path class="st342" d="M31.8,26.5c0,6.2-4.5,10.5-10,10.5c-5.5,0-10-4.3-10-10.5c0-6.2,4.5-12.8,10-12.8
			C27.3,13.6,31.8,20.2,31.8,26.5"/>
		<path class="st343" d="M31.7,26.4c0,6.2-4.5,10.5-10,10.5s-10-4.3-10-10.5s4.5-12.7,10-12.7S31.7,20.2,31.7,26.4"/>
		<path class="st344" d="M31.7,26.4c0,6.2-4.4,10.4-9.9,10.4s-9.9-4.3-9.9-10.4c0-6.2,4.4-12.6,9.9-12.6S31.7,20.2,31.7,26.4"/>
		<path class="st345" d="M31.6,26.3c0,6.1-4.4,10.4-9.8,10.4c-5.4,0-9.8-4.2-9.8-10.4c0-6.1,4.4-12.5,9.8-12.5
			C27.2,13.8,31.6,20.2,31.6,26.3"/>
		<path class="st346" d="M31.5,26.2c0,6.1-4.4,10.3-9.8,10.3c-5.4,0-9.8-4.2-9.8-10.3s4.4-12.4,9.8-12.4
			C27.1,13.8,31.5,20.2,31.5,26.2"/>
		<path class="st347" d="M31.5,26.2c0,6-4.4,10.2-9.7,10.2c-5.4,0-9.7-4.2-9.7-10.2c0-6,4.4-12.3,9.7-12.3
			C27.1,13.9,31.5,20.2,31.5,26.2"/>
		<path class="st348" d="M31.4,26.1c0,6-4.3,10.2-9.7,10.2c-5.4,0-9.7-4.2-9.7-10.2c0-6,4.3-12.2,9.7-12.2
			C27,13.9,31.4,20.1,31.4,26.1"/>
		<path class="st349" d="M31.3,26.1c0,6-4.3,10.1-9.6,10.1S12,32,12,26.1c0-6,4.3-12.1,9.6-12.1S31.3,20.1,31.3,26.1"/>
		<path class="st350" d="M31.3,26c0,5.9-4.3,10-9.6,10s-9.6-4.1-9.6-10s4.3-12,9.6-12S31.3,20.1,31.3,26"/>
		<path class="st351" d="M31.2,26c0,5.9-4.3,10-9.5,10c-5.3,0-9.5-4.1-9.5-10c0-5.9,4.3-11.9,9.5-11.9C26.9,14.1,31.2,20.1,31.2,26"
			/>
		<path class="st352" d="M31.1,25.9c0,5.8-4.2,9.9-9.5,9.9c-5.2,0-9.5-4.1-9.5-9.9c0-5.8,4.2-11.8,9.5-11.8
			C26.9,14.1,31.1,20.1,31.1,25.9"/>
		<path class="st353" d="M31.1,25.9c0,5.8-4.2,9.9-9.4,9.9s-9.4-4.1-9.4-9.9c0-5.8,4.2-11.7,9.4-11.7S31.1,20.1,31.1,25.9"/>
		<path class="st354" d="M31,25.8c0,5.7-4.2,9.8-9.4,9.8s-9.4-4.1-9.4-9.8c0-5.7,4.2-11.6,9.4-11.6S31,20.1,31,25.8"/>
		<path class="st355" d="M30.9,25.7c0,5.7-4.2,9.7-9.3,9.7s-9.3-4-9.3-9.7s4.2-11.5,9.3-11.5S30.9,20,30.9,25.7"/>
		<path class="st356" d="M30.8,25.7c0,5.7-4.2,9.7-9.3,9.7c-5.1,0-9.3-4-9.3-9.7c0-5.7,4.2-11.4,9.3-11.4
			C26.7,14.3,30.8,20,30.8,25.7"/>
		<path class="st357" d="M30.8,25.6c0,5.6-4.1,9.6-9.2,9.6c-5.1,0-9.2-4-9.2-9.6c0-5.6,4.1-11.3,9.2-11.3
			C26.6,14.4,30.8,20,30.8,25.6"/>
		<path class="st358" d="M30.7,25.6c0,5.6-4.1,9.6-9.2,9.6s-9.2-4-9.2-9.6c0-5.6,4.1-11.2,9.2-11.2S30.7,20,30.7,25.6"/>
		<path class="st359" d="M30.6,25.5c0,5.5-4.1,9.5-9.1,9.5s-9.1-4-9.1-9.5c0-5.5,4.1-11.1,9.1-11.1S30.6,20,30.6,25.5"/>
		<path class="st360" d="M30.6,25.5c0,5.5-4.1,9.4-9.1,9.4c-5,0-9.1-3.9-9.1-9.4c0-5.5,4.1-11,9.1-11C26.5,14.5,30.6,20,30.6,25.5"
			/>
		<path class="st361" d="M30.5,25.4c0,5.5-4,9.4-9,9.4c-5,0-9-3.9-9-9.4c0-5.5,4-10.9,9-10.9C26.5,14.6,30.5,20,30.5,25.4"/>
		<path class="st362" d="M30.4,25.4c0,5.4-4,9.3-9,9.3c-5,0-9-3.9-9-9.3c0-5.4,4-10.8,9-10.8C26.4,14.6,30.4,19.9,30.4,25.4"/>
		<path class="st363" d="M30.4,25.3c0,5.4-4,9.3-8.9,9.3c-4.9,0-8.9-3.9-8.9-9.3s4-10.7,8.9-10.7C26.4,14.6,30.4,19.9,30.4,25.3"/>
		<path class="st364" d="M30.3,25.3c0,5.3-4,9.2-8.9,9.2s-8.9-3.9-8.9-9.2s4-10.6,8.9-10.6S30.3,19.9,30.3,25.3"/>
		<path class="st365" d="M30.2,25.2c0,5.3-4,9.1-8.8,9.1s-8.8-3.8-8.8-9.1c0-5.3,4-10.5,8.8-10.5S30.2,19.9,30.2,25.2"/>
		<path class="st366" d="M30.2,25.1c0,5.2-3.9,9.1-8.8,9.1c-4.8,0-8.8-3.8-8.8-9.1c0-5.2,3.9-10.3,8.8-10.3
			C26.3,14.8,30.2,19.9,30.2,25.1"/>
		<path class="st367" d="M30.1,25.1c0,5.2-3.9,9-8.7,9c-4.8,0-8.7-3.8-8.7-9c0-5.2,3.9-10.2,8.7-10.2C26.2,14.8,30.1,19.9,30.1,25.1
			"/>
		<path class="st368" d="M30,25c0,5.2-3.9,9-8.7,9s-8.7-3.8-8.7-9c0-5.2,3.9-10.1,8.7-10.1S30,19.9,30,25"/>
		<path class="st369" d="M30,25c0,5.1-3.9,8.9-8.6,8.9s-8.6-3.8-8.6-8.9c0-5.1,3.9-10,8.6-10S30,19.9,30,25"/>
		<path class="st370" d="M29.9,24.9c0,5.1-3.8,8.8-8.6,8.8s-8.6-3.7-8.6-8.8c0-5.1,3.8-9.9,8.6-9.9S29.9,19.8,29.9,24.9"/>
		<path class="st371" d="M29.8,24.9c0,5-3.8,8.8-8.5,8.8s-8.5-3.7-8.5-8.8c0-5,3.8-9.8,8.5-9.8S29.8,19.8,29.8,24.9"/>
		<path class="st372" d="M29.8,24.8c0,5-3.8,8.7-8.5,8.7c-4.7,0-8.5-3.7-8.5-8.7c0-5,3.8-9.7,8.5-9.7C26,15.1,29.8,19.8,29.8,24.8"
			/>
		<path class="st373" d="M29.7,24.8c0,5-3.8,8.6-8.4,8.6s-8.4-3.7-8.4-8.6c0-5,3.8-9.6,8.4-9.6S29.7,19.8,29.7,24.8"/>
		<path class="st374" d="M29.6,24.7c0,4.9-3.7,8.6-8.4,8.6s-8.4-3.7-8.4-8.6c0-4.9,3.7-9.5,8.4-9.5S29.6,19.8,29.6,24.7"/>
		<path class="st375" d="M29.6,24.6c0,4.9-3.7,8.5-8.3,8.5s-8.3-3.6-8.3-8.5s3.7-9.4,8.3-9.4S29.6,19.8,29.6,24.6"/>
		<path class="st376" d="M29.5,24.6c0,4.8-3.7,8.5-8.3,8.5c-4.6,0-8.3-3.6-8.3-8.5c0-4.8,3.7-9.3,8.3-9.3
			C25.8,15.3,29.5,19.8,29.5,24.6"/>
		<path class="st377" d="M29.4,24.5c0,4.8-3.7,8.4-8.2,8.4c-4.5,0-8.2-3.6-8.2-8.4c0-4.8,3.7-9.2,8.2-9.2
			C25.8,15.3,29.4,19.7,29.4,24.5"/>
		<path class="st378" d="M29.4,24.5c0,4.8-3.7,8.3-8.2,8.3c-4.5,0-8.2-3.6-8.2-8.3c0-4.8,3.7-9.1,8.2-9.1
			C25.7,15.4,29.4,19.7,29.4,24.5"/>
		<path class="st379" d="M29.3,24.4c0,4.7-3.6,8.3-8.1,8.3s-8.1-3.6-8.1-8.3c0-4.7,3.6-9,8.1-9S29.3,19.7,29.3,24.4"/>
		<path class="st380" d="M29.2,24.4c0,4.7-3.6,8.2-8.1,8.2s-8.1-3.6-8.1-8.2c0-4.7,3.6-8.9,8.1-8.9S29.2,19.7,29.2,24.4"/>
		<path class="st381" d="M29.2,24.3c0,4.6-3.6,8.2-8,8.2c-4.4,0-8-3.5-8-8.2c0-4.6,3.6-8.8,8-8.8C25.6,15.5,29.2,19.7,29.2,24.3"/>
		<path class="st382" d="M29.1,24.3c0,4.6-3.6,8.1-8,8.1c-4.4,0-8-3.5-8-8.1c0-4.6,3.6-8.7,8-8.7C25.5,15.6,29.1,19.7,29.1,24.3"/>
		<path class="st383" d="M29,24.2c0,4.5-3.5,8-7.9,8s-7.9-3.5-7.9-8c0-4.5,3.5-8.6,7.9-8.6S29,19.7,29,24.2"/>
		<path class="st384" d="M29,24.1c0,4.5-3.5,8-7.9,8s-7.9-3.5-7.9-8s3.5-8.5,7.9-8.5S29,19.6,29,24.1"/>
		<path class="st385" d="M28.9,24.1c0,4.5-3.5,7.9-7.8,7.9s-7.8-3.5-7.8-7.9c0-4.5,3.5-8.4,7.8-8.4S28.9,19.6,28.9,24.1"/>
		<path class="st386" d="M28.8,24c0,4.4-3.5,7.9-7.8,7.9s-7.8-3.4-7.8-7.9s3.5-8.3,7.8-8.3S28.8,19.6,28.8,24"/>
		<path class="st387" d="M28.8,24c0,4.4-3.4,7.8-7.7,7.8c-4.3,0-7.7-3.4-7.7-7.8c0-4.4,3.4-8.2,7.7-8.2C25.3,15.8,28.8,19.6,28.8,24
			"/>
		<path class="st388" d="M28.7,23.9c0,4.3-3.4,7.7-7.7,7.7s-7.7-3.4-7.7-7.7c0-4.3,3.4-8.1,7.7-8.1S28.7,19.6,28.7,23.9"/>
		<path class="st389" d="M28.6,23.9c0,4.3-3.4,7.7-7.6,7.7s-7.6-3.4-7.6-7.7c0-4.3,3.4-8,7.6-8S28.6,19.6,28.6,23.9"/>
		<path class="st390" d="M28.6,23.8c0,4.3-3.4,7.6-7.6,7.6s-7.6-3.4-7.6-7.6c0-4.3,3.4-7.9,7.6-7.9S28.6,19.6,28.6,23.8"/>
		<path class="st391" d="M28.5,23.8c0,4.2-3.4,7.5-7.5,7.5c-4.1,0-7.5-3.3-7.5-7.5c0-4.2,3.4-7.8,7.5-7.8
			C25.1,16,28.5,19.6,28.5,23.8"/>
		<path class="st392" d="M28.4,23.7c0,4.2-3.3,7.5-7.4,7.5c-4.1,0-7.4-3.3-7.4-7.5c0-4.2,3.3-7.7,7.4-7.7
			C25.1,16,28.4,19.5,28.4,23.7"/>
		<path class="st393" d="M28.4,23.7c0,4.1-3.3,7.4-7.4,7.4c-4.1,0-7.4-3.3-7.4-7.4c0-4.1,3.3-7.6,7.4-7.6
			C25.1,16.1,28.4,19.5,28.4,23.7"/>
		<path class="st394" d="M28.3,23.6c0,4.1-3.3,7.4-7.3,7.4s-7.3-3.3-7.3-7.4c0-4.1,3.3-7.5,7.3-7.5S28.3,19.5,28.3,23.6"/>
		<path class="st395" d="M28.2,23.5c0,4-3.3,7.3-7.3,7.3s-7.3-3.3-7.3-7.3c0-4,3.3-7.3,7.3-7.3S28.2,19.5,28.2,23.5"/>
		<path class="st0" d="M28.2,23.5c0,4-3.2,7.2-7.2,7.2c-4,0-7.2-3.2-7.2-7.2c0-4,3.2-7.2,7.2-7.2C24.9,16.2,28.2,19.5,28.2,23.5"/>
		<path class="st396" d="M80.8,57.8c-4.6,0-6.5-1.1-6.9-6.2c-0.3-3-0.4-7.1-0.4-10.2v-2.1c0-2.8,0-7.4,0.3-10.4
			c0.4-4.6,2.4-5.8,7.1-5.8h12.3c0.9,0,1.1,0.3,1.1,1.1v2.1c0,0.8-0.2,1.1-1.1,1.1H81.3c-1.5,0-2.3,0.5-2.4,2
			c-0.2,2.1-0.3,5.3-0.3,8.4H91c0.9,0,1.1,0.3,1.1,1V41c0,0.7-0.2,1-1.1,1H78.6c0,3.9,0.1,7.1,0.4,9.7c0.2,1.4,0.8,1.9,2.3,1.9h11.9
			c1,0,1.1,0.3,1.1,1v2.2c0,0.8-0.2,1-1.1,1H80.8z"/>
		<path class="st396" d="M98.7,32.3c0-0.6,0.3-0.8,0.9-0.8h1.9c0.6,0,0.9,0.2,1,0.8l0.3,1.7h0.1c1.5-1.8,4-3,7.6-3
			c6.1,0,9.3,2.8,9.3,10.6v15.2c0,0.8-0.3,1-1.1,1h-2.8c-0.7,0-1.1-0.2-1.1-1V41.4c0-4.5-1.6-6.3-5.6-6.3c-3.5,0-5.5,1.3-5.5,5.6
			v16.2c0,0.8-0.3,1-1.1,1h-2.8c-0.8,0-1.1-0.2-1.1-1V32.3z"/>
		<path class="st396" d="M144.7,45.6c0,1-0.4,1.6-1.5,1.6h-13.8c0.2,5.1,1.3,7,6.5,7c1.9,0,4.2-0.4,5.7-1c0.3-0.1,0.6-0.2,0.9-0.2
			c0.3,0,0.5,0.1,0.6,0.6l0.4,1.3c0.2,0.5,0.3,0.9,0.3,1.1c0,0.4-0.2,0.6-0.6,0.8c-1.9,0.9-4.9,1.5-7.8,1.5c-8.4,0-11-3.7-11-12.7
			v-1.8c0-8.4,2.7-12.7,10.5-12.7c6.4,0,9.9,3.1,9.9,10.7V45.6z M139.3,43.2c0.5,0,0.7-0.2,0.7-0.8c0-5.1-1.1-7.3-5.2-7.3
			c-4.5,0-5.4,2.6-5.4,8H139.3z"/>
		<path class="st396" d="M153.3,35h0.1c1.4-2.4,3.2-3.4,6.6-3.4h1.1c0.9,0,1.1,0.2,1.1,1v2.4c0,0.6-0.3,0.9-1.1,0.9h-1.2
			c-2.6,0-3.7,0.5-4.6,1.5c-0.9,1-1.2,2.4-1.2,4.7v14.9c0,0.8-0.3,1-1.1,1h-2.8c-0.8,0-1.1-0.2-1.1-1V32.3c0-0.6,0.3-0.8,0.9-0.8
			h1.9c0.6,0,1,0.2,1,0.8L153.3,35z"/>
		<path class="st396" d="M185.1,42v1c0,5.2-1.4,7.6-3.4,8.7c3,1.6,4.5,4.3,4.5,7.4v0.6c0,5.4-3.6,8.2-10.7,8.2
			c-3.8,0-7.8-0.8-10.6-1.9c-0.6-0.3-0.8-0.5-0.8-0.9c0-0.2,0.1-0.5,0.3-1.1l0.5-1.6c0.1-0.4,0.4-0.5,0.5-0.5c0.2,0,0.4,0.1,0.8,0.2
			c2.5,1,5.9,1.7,8.9,1.7c3.8,0,6.1-1.2,6.1-4.7v-0.4c0-2.4-1.1-4.2-3.3-5.2c-0.9,0.2-2,0.3-3.3,0.3c-7.6,0-10.6-3.4-10.6-10.8v-1
			c0-8,3.5-10.9,10.6-10.9c0.4,0,0.8,0,1.2,0.1c1-2.8,3.1-4.4,6.8-4.4h1.6c0.7,0,0.9,0.3,0.9,1v2c0,0.6-0.1,0.9-0.9,0.9h-1.9
			c-1.5,0-2.1,0.2-2.6,1.1C183.4,32.8,185.1,35.7,185.1,42 M168.9,43c0,4.7,1.1,6.9,5.6,6.9c4.5,0,5.6-2.3,5.6-7v-1.1
			c0-4.8-1.3-6.8-5.6-6.8c-4.4,0-5.6,2-5.6,6.8V43z"/>
		<path class="st396" d="M196,64.6c0.9-1.8,2.1-4.3,3.1-6.9c-1.7-0.3-2.8-1.6-3.7-3.9c-1.8-4.6-4-12.1-5.6-19.3
			c-0.2-1.1-0.4-1.9-0.4-2.4c0-0.5,0.3-0.6,0.9-0.6h3.1c0.6,0,1,0.2,1.1,0.8c1.4,7,3.1,13.8,4.6,18.1c0.6,1.9,1,2.7,1.6,2.7h0.2
			c2.1-6.4,4.2-14,5.5-20.8c0.1-0.5,0.4-0.8,1.1-0.8h3.2c0.5,0,0.7,0.1,0.7,0.5c0,0.3-0.1,0.8-0.4,2c-2.4,10.4-5,19.2-11,33.1
			c-0.3,0.6-0.5,0.8-0.8,0.8c-0.4,0-0.7-0.1-1.4-0.4l-1.4-0.6c-0.6-0.2-0.9-0.4-0.9-0.8C195.4,65.9,195.5,65.6,196,64.6"/>
		<path class="st396" d="M220.8,30.8h-0.3v25.9c0,0.9-0.3,1.1-1.1,1.1h-2.6c-0.9,0-1.1-0.2-1.1-1.1V24.6c0-1.2,0.4-1.5,1.6-1.5h2.8
			c1.4,0,1.9,0.4,2.5,1.5l13.9,25.5h0.3V24.2c0-0.9,0.3-1.1,1.1-1.1h2.6c0.9,0,1.1,0.3,1.1,1.1v32.1c0,1.2-0.4,1.4-1.6,1.4h-2.8
			c-1.4,0-1.9-0.4-2.5-1.4L220.8,30.8z"/>
		<path class="st396" d="M266.6,45.6c0,1-0.4,1.6-1.5,1.6h-13.8c0.2,5.1,1.3,7,6.5,7c1.9,0,4.2-0.4,5.7-1c0.3-0.1,0.6-0.2,0.9-0.2
			c0.3,0,0.5,0.1,0.6,0.6l0.4,1.3c0.2,0.5,0.3,0.9,0.3,1.1c0,0.4-0.2,0.6-0.6,0.8c-1.9,0.9-4.9,1.5-7.8,1.5c-8.4,0-11-3.7-11-12.7
			v-1.8c0-8.4,2.7-12.7,10.5-12.7c6.4,0,9.9,3.1,9.9,10.7V45.6z M261.2,43.2c0.5,0,0.7-0.2,0.7-0.8c0-5.1-1.1-7.3-5.2-7.3
			c-4.5,0-5.4,2.6-5.4,8H261.2z"/>
		<path class="st396" d="M271,57c-0.5-0.2-0.8-0.3-0.8-0.8c0-0.3,0.1-0.8,0.3-1.6l0.3-1c0.2-0.6,0.4-0.8,0.7-0.8
			c0.4,0,0.8,0.3,1.9,0.6c1.6,0.5,3.5,0.7,5.5,0.7c3.4,0,4.9-1.2,4.9-3.7v-0.3c0-2.5-1.2-3.2-3.8-3.8l-2.5-0.5
			c-5.5-1.2-6.8-2.8-6.8-7.2v-0.4c0-5,2.9-7.3,9-7.3c2.7,0,5,0.4,6.8,0.9c0.5,0.2,0.6,0.4,0.6,0.7c0,0.3-0.2,0.8-0.3,1.6l-0.3,1
			c-0.2,0.6-0.3,0.8-0.6,0.8c-0.3,0-0.7-0.1-1.1-0.2c-1.2-0.3-3.2-0.6-4.8-0.6c-3.6,0-4.7,0.9-4.7,3.2v0.3c0,1.9,0.9,2.6,4,3.3
			l2.5,0.5c4.8,1,6.6,2.9,6.6,7.6v0.4c0,5.1-3.3,7.8-9.6,7.8C276.4,58.3,273.2,57.8,271,57"/>
		<path class="st396" d="M302.5,57.8c-3.4,0-5.3-0.7-6.4-1.9c-1.2-1.3-1.6-3.2-1.6-6.5V35.8h-3.2c-0.6,0-0.8-0.2-0.8-0.8v-1.7
			c0-0.7,0.2-0.8,0.7-0.9l3.3-0.6v-5.8c0-0.8,0.3-1,1.1-1h2.8c0.7,0,1,0.3,1,1v5.7h5.8c0.6,0,0.9,0.3,0.9,1v2.3c0,0.6-0.2,1-0.9,1
			h-5.8V49c0,2.1,0.1,2.8,0.6,3.6c0.6,0.9,1.4,1,3.4,1h2.3c0.7,0,1,0.2,1,1v2.2c0,0.7-0.2,1-1,1H302.5z"/>
	</g>
</g>
</svg>
